<?xml version="1.0" encoding="UTF-8"?><svg id="Capa_1" xmlns="http://www.w3.org/2000/svg" xmlns:xlink="http://www.w3.org/1999/xlink" viewBox="0 0 500 500"><defs><style>.cls-1,.cls-2{fill:#fff;}.cls-2{fill-rule:evenodd;}.cls-3{fill:#871919;}.cls-4{fill:#ac1f20;}.cls-5{clip-path:url(#clippath);}.cls-6,.cls-7{fill:none;}.cls-7{stroke:#871919;stroke-miterlimit:10;stroke-width:8.79px;}</style><clipPath id="clippath"><rect class="cls-6" x="29.39" y="29.39" width="441.22" height="441.22" rx="50.58" ry="50.58"/></clipPath></defs><g class="cls-5"><rect class="cls-3" x="29.39" y="29.39" width="441.22" height="441.22" rx="50.58" ry="50.58"/><rect class="cls-4" x="29.39" y="7.98" width="441.22" height="441.22" rx="50.58" ry="50.58"/><path class="cls-1" d="M408.23,178.16c0-12.78-9.06-22.14-21.54-22.14s-21.53,9.36-21.53,22.14,9.07,22.1,21.53,22.1,21.54-9.36,21.54-22.1Zm-27.2,1.14v14.46h-4.67v-31.88h11.61c6.8,0,9.92,2.97,9.92,8.76,0,3.57-2.41,6.39-5.52,6.8v.13c2.7,.43,3.69,2.84,4.24,7.24,.43,2.85,.99,7.8,2.01,8.96h-5.53c-1.29-3-1.16-7.24-2.15-10.79-.82-2.7-2.26-3.69-5.35-3.69h-4.54v.02h-.03s0-.01,0-.01Zm5.79-4.12c4.54,0,5.83-2.42,5.83-4.55,0-2.52-1.3-4.51-5.83-4.51h-5.79v9.07h5.79Zm-26.8,2.98c0-15.74,12.5-26.39,26.65-26.39s26.68,10.64,26.68,26.39-12.48,26.37-26.68,26.37-26.65-10.65-26.65-26.37Z"/><polyline class="cls-7" points="19.17 187.46 203.92 322.64 270.86 322.64 302.49 322.64 480.83 183.73"/><line class="cls-7" x1="21" y1="314.85" x2="108.99" y2="253.19"/><line class="cls-7" x1="480.83" y1="314.85" x2="395.76" y2="250"/><path class="cls-2" d="M317.31,149.97h-114.08c-28.35,0-33.12,19.74-37.2,36.66l-26.07,107.92c-5.23,21.62-8.96,37.08,33.87,37.08h141.44l10.58-43.8h-95.18c-15.53,0-23.89-7.61-20.88-20.03l4.56-18.88h120.9l15.05-62.28c3.3-13.67,8.86-36.66-32.99-36.66Zm-34.25,49.46l-3.86,15.14h-56.55l3.99-15.7c1.48-5.84,5.08-11.41,14.04-11.41h34.38c10.89,0,9.18,7.32,8,11.97Z"/></g></svg>