<?xml version="1.0" encoding="UTF-8"?><svg id="Capa_1" xmlns="http://www.w3.org/2000/svg" viewBox="0 0 1084.7 230.09"><defs><style>.cls-1{fill-rule:evenodd;}.cls-1,.cls-2{fill:#e20613;}</style></defs><path class="cls-1" d="M58.7,92.38c2.79-11.55,6.05-25.02,25.39-25.02h77.87c28.56,0,24.77,15.69,22.52,25.02l-10.27,42.51H91.68l-3.11,12.89c-2.05,8.48,3.66,13.67,14.25,13.67h64.97l-7.22,29.89H64.02c-29.24,0-26.69-10.55-23.12-25.31l17.8-73.66h0Zm38.65,19.07h38.6l2.63-10.33c.81-3.17,1.97-8.17-5.46-8.17h-23.46c-6.12,0-8.58,3.8-9.59,7.79l-2.73,10.72h0Zm206.17-44.1h-75.46c-23.16,0-26.5,13.31-29.35,25.59-2.85,12.28,1.51,23.56,16.5,34.27,14.99,10.72,31.72,17.65,28.9,27.28-1.19,4.04-6.22,6.96-16.32,6.96h-45.63l-7.22,29.89h75.06c14.66,0,32.81,.27,41.48-13.57,8.66-13.84,6.22-24.93-1.61-36.39-7.83-11.47-23.12-18.83-34.52-29.93-6.72-6.54-6.35-18.51,4.55-18.51h37.43l6.18-25.59h0Zm14.11,0h24.24l7.73-32.01h44.14l-7.73,32.01h22.59c-2.06,8.53-4.12,17.06-6.18,25.59h-22.59l-14.01,57.97c-2.54,10.53,.73,14.9,14.24,14.9l-6.17,25.52h-32.43c-29.55,0-24.66-20.21-22.32-29.89l16.55-68.5h-24.24l6.18-25.59h0Zm98.92,25.59l6.18-25.59h94.17c22.95,0,20.11,17.09,18.05,25.59l-17.61,72.88c-4.62,19.12,1.29,20.55,5.02,25.52h-42.02c-4.75,0-10.88-3.48-13.03-5.77-9.91,3.02-10.58,9.41-31.23,9.05-20.65-.36-43.71-18.81-41.77-43.52,1.93-24.7,23.51-39.66,43.02-39.66h47.89l2.73-11.28c1.74-7.22-3.92-7.22-7.35-7.22h-64.05Zm64.83,39.27h-28.95c-11.82,0-28.16,14.24-14.48,28.36,13.68,14.12,38.48-7.16,43.43-28.36h0Zm164.06-96.87h-41.41c-10.66,0-24.25,0-29.71,22.62l-2.27,9.39h-18.52l-6.18,25.59h18.52l-21.48,88.91c-.92,3.83-2.35,6.33-7.04,9.49h33.66c11.35,0,17.46-10.52,21.09-25.52l17.61-72.88h21.82l6.18-25.59h-21.82l1.31-5.42c.95-3.92,4.33-6.8,10.24-6.72l13.17,.17,4.84-20.04h0Zm1.45,57.04c2.79-11.55,6.05-25.02,25.4-25.02h77.87c28.56,0,24.77,15.69,22.52,25.02l-10.27,42.51h-82.52l-3.11,12.89c-2.05,8.48,3.66,13.67,14.25,13.67h64.97l-7.22,29.89h-96.54c-29.24,0-26.69-10.55-23.12-25.31l17.8-73.66h0Zm38.65,19.07h38.6l2.63-10.33c.81-3.17,1.97-8.17-5.46-8.17h-23.46c-6.11,0-8.57,3.8-9.59,7.79l-2.73,10.72h0Zm106.18-44.1h24.24l7.74-32.01h44.14l-7.73,32.01h22.59c-2.06,8.53-4.12,17.06-6.18,25.59h-22.59l-14.01,57.97c-2.54,10.53,.73,14.9,14.23,14.9l-6.17,25.52h-32.43c-29.55,0-24.66-20.21-22.32-29.89l16.55-68.5h-24.24l6.18-25.59h0Zm98.91,25.59l6.18-25.59h94.17c22.95,0,20.11,17.09,18.05,25.59l-17.61,72.88c-4.62,19.12,1.29,20.55,5.02,25.52h-42.02c-4.75,0-10.88-3.48-13.03-5.77-9.91,3.02-10.58,9.41-31.23,9.05-20.65-.36-43.7-18.81-41.77-43.52,1.93-24.7,23.51-39.66,43.02-39.66h47.89l2.73-11.28c1.75-7.22-3.92-7.22-7.35-7.22h-64.04Zm64.83,39.27h-28.95c-11.82,0-28.16,14.24-14.47,28.36,13.68,14.12,38.48-7.16,43.43-28.36h0Z"/><g><path class="cls-2" d="M1049.22,79.39c.23-.36,.34-.75,.34-1.17,0-.61-.22-1.12-.67-1.52-.44-.4-1.15-.59-2.11-.59h-4.11v4.3h3.69c.78,0,1.4-.08,1.84-.24,.44-.16,.78-.43,1.01-.78Z"/><path class="cls-2" d="M1051.2,68.7c-3.28-3.28-7.82-5.32-12.81-5.32s-9.53,2.04-12.82,5.32h0c-3.28,3.29-5.32,7.82-5.32,12.81s2.04,9.53,5.32,12.81h0c3.28,3.29,7.82,5.33,12.81,5.33s9.53-2.04,12.81-5.32h0c3.28-3.28,5.32-7.82,5.32-12.81s-2.04-9.53-5.32-12.81Zm-13.04,18.96h-1.66v-10.87l-3.77,10.87h-1.55l-3.76-11.05v11.05h-1.66v-12.99h2.59l3.07,9.19c.28,.86,.49,1.5,.62,1.92,.15-.47,.38-1.17,.69-2.08l3.11-9.03h2.31v12.99Zm12.08,0l-1.72-2.7c-.5-.78-.92-1.38-1.24-1.79-.32-.41-.61-.7-.87-.87-.26-.17-.52-.28-.78-.35-.2-.04-.51-.06-.96-.06h-1.99v5.76h-1.72v-12.99h5.76c1.16,0,2.04,.12,2.64,.35,.6,.23,1.08,.64,1.45,1.23,.36,.59,.54,1.25,.54,1.96,0,.92-.3,1.7-.89,2.33-.6,.63-1.52,1.03-2.76,1.21,.46,.22,.8,.43,1.04,.65,.5,.46,.98,1.04,1.43,1.73l2.26,3.53h-2.16Z"/></g></svg>