<?xml version="1.0" encoding="UTF-8"?><svg id="Capa_1" xmlns="http://www.w3.org/2000/svg" viewBox="0 0 956.43 292.9"><defs><style>.cls-1{fill:#ff5a00;}.cls-2{fill:#29007c;}</style></defs><path class="cls-1" d="M945.89,245.33c0-14.36-10.19-24.88-24.22-24.88s-24.21,10.52-24.21,24.88,10.2,24.84,24.21,24.84,24.22-10.52,24.22-24.84Zm-30.58,1.28v16.25h-5.25v-35.84h13.05c7.65,0,11.15,3.34,11.15,9.85,0,4.01-2.71,7.18-6.2,7.65v.15c3.03,.48,4.14,3.19,4.77,8.13,.48,3.2,1.11,8.76,2.26,10.07h-6.21c-1.45-3.37-1.3-8.13-2.41-12.13-.92-3.04-2.54-4.14-6.02-4.14h-5.1v.02h-.03s0-.01,0-.01Zm6.51-4.63c5.1,0,6.56-2.72,6.56-5.11,0-2.83-1.46-5.07-6.56-5.07h-6.51v10.19h6.51Zm-30.13,3.34c0-17.7,14.05-29.66,29.96-29.66s29.99,11.96,29.99,29.66-14.03,29.64-29.99,29.64-29.96-11.97-29.96-29.64Z"/><path class="cls-1" d="M787.88,269.8l-34.54-38.73-34.23,38.73h-72.03l70.4-79.1-70.4-79.12h74.28l34.89,38.44,33.57-38.44h71.68l-70.05,78.79,71.03,79.43h-74.59Zm-279.13,0V20.56h138.32v55.55h-79.73v35.47h79.73v53.46h-79.73v49.06h79.73v55.69h-138.32Z"/><path class="cls-2" d="M450.37,20.56V122.56h-.65c-12.92-14.85-29.07-20.02-47.79-20.02-38.37,0-67.27,26.1-77.41,60.58-11.57-38-41.41-61.29-85.65-61.29-35.94,0-64.3,16.12-79.12,42.4v-32.65H85.49v-35.46h81.05V20.57H19.29v249.23H85.49v-104.76h65.99c-2.03,8.06-3.05,16.33-3.02,24.64,0,51.97,39.71,88.48,90.41,88.48,42.62,0,70.73-20.03,85.58-56.49h-56.74c-7.67,10.97-13.5,14.21-28.84,14.21-17.78,0-33.13-15.52-33.13-33.9h115.53c5.01,41.28,37.18,76.88,81.32,76.88,19.04,0,36.48-9.36,47.13-25.18h.64v16.15h58.37V20.57h-58.36ZM207.58,165.78c3.69-15.84,15.97-26.19,31.29-26.19,16.88,0,28.53,10.03,31.59,26.19h-62.88Zm207.37,66.08c-21.51,0-34.87-20.04-34.87-40.97,0-22.38,11.63-43.87,34.87-43.87s33.73,21.51,33.73,43.87c0,21.2-10.17,40.97-33.73,40.97Z"/></svg>