<?xml version="1.0" encoding="UTF-8"?><svg id="Capa_1" xmlns="http://www.w3.org/2000/svg" viewBox="0 0 500 500"><defs><style>.cls-1{fill:#fff;}.cls-2{fill:#ff5a00;}.cls-3{fill:#4d148c;}</style></defs><rect class="cls-3" x="29.39" y="29.39" width="441.22" height="441.22" rx="50.58" ry="50.58"/><g><path class="cls-2" d="M453.79,291.9c0-6.29-4.46-10.9-10.61-10.9s-10.61,4.61-10.61,10.9,4.47,10.89,10.61,10.89,10.61-4.61,10.61-10.89Zm-13.4,.56v7.12h-2.3v-15.71h5.72c3.35,0,4.89,1.46,4.89,4.32,0,1.76-1.19,3.15-2.72,3.35v.07c1.33,.21,1.82,1.4,2.09,3.57,.21,1.4,.49,3.84,.99,4.41h-2.72c-.63-1.48-.57-3.57-1.06-5.31-.4-1.33-1.11-1.82-2.64-1.82h-2.23s-.01,0-.01,0h0Zm2.85-2.03c2.23,0,2.87-1.19,2.87-2.24,0-1.24-.64-2.22-2.87-2.22h-2.85v4.47h2.85Zm-13.2,1.47c0-7.76,6.16-13,13.13-13s13.14,5.24,13.14,13-6.15,12.99-13.14,12.99-13.13-5.25-13.13-12.99Z"/><path class="cls-2" d="M384.54,302.63l-15.14-16.97-15,16.97h-31.57l30.85-34.66-30.85-34.67h32.56l15.29,16.84,14.71-16.84h31.42l-30.7,34.53,31.13,34.81h-32.69Zm-122.33,0v-109.23h60.62v24.35h-34.94v15.54h34.94v23.43h-34.94v21.5h34.94v24.41h-60.62Z"/><path class="cls-1" d="M236.62,193.4v44.7h-.28c-5.66-6.51-12.74-8.77-20.94-8.77-16.81,0-29.48,11.44-33.93,26.55-5.07-16.65-18.15-26.86-37.54-26.86-15.75,0-28.18,7.07-34.67,18.58v-14.31h-32.55v-15.54h35.52v-24.34H47.7v109.23h29.01v-45.91h28.92c-.89,3.53-1.34,7.16-1.33,10.8,0,22.77,17.4,38.78,39.62,38.78,18.68,0,31-8.78,37.51-24.76h-24.87c-3.36,4.81-5.91,6.23-12.64,6.23-7.79,0-14.52-6.8-14.52-14.86h50.63c2.2,18.09,16.29,33.69,35.64,33.69,8.35,0,15.99-4.1,20.66-11.04h.28v7.08h25.58v-109.24h-25.58Zm-106.41,63.64c1.62-6.94,7-11.48,13.71-11.48,7.4,0,12.5,4.39,13.84,11.48h-27.56Zm90.88,28.96c-9.43,0-15.28-8.78-15.28-17.96,0-9.81,5.1-19.23,15.28-19.23s14.78,9.43,14.78,19.23c0,9.29-4.46,17.96-14.78,17.96Z"/></g></svg>