<?xml version="1.0" encoding="UTF-8"?>
<svg id="Capa_1" data-name="Capa 1" xmlns="http://www.w3.org/2000/svg" viewBox="0 0 1155.1 676.22">
  <defs>
    <style>
      .cls-1 {
        fill: #01fff4;
      }

      .cls-2 {
        fill: #fff;
      }

      .cls-3 {
        fill: #fef104;
      }
    </style>
  </defs>
  <rect class="cls-3" x="38.07" y="139.68" width="84" height="187.54" rx="42" ry="42"/>
  <rect class="cls-1" x="38.07" y="242.68" width="84" height="187.54" rx="42" ry="42"/>
  <circle class="cls-2" cx="80.07" cy="275.45" r="42"/>
  <circle class="cls-1" cx="647.07" cy="100.6" r="42"/>
  <circle class="cls-2" cx="80.07" cy="86.98" r="42"/>
  <polygon class="cls-1" points="267.07 430.22 187.07 430.22 187.07 72.6 272.07 72.6 367.07 344.6 334.48 427.21 268.97 233.45 267.07 430.22"/>
  <polygon class="cls-3" points="462.07 430.22 542.07 430.22 542.07 72.6 457.07 72.6 334.48 427.21 396.03 427.29 460.16 233.45 462.07 430.22"/>
  <rect class="cls-1" x="610.35" y="172.22" width="71.44" height="258"/>
  <rect class="cls-1" x="744.04" y="46.64" width="72.27" height="321.33"/>
  <path class="cls-1" d="m879.94,415.01l-10.05-38.51s-57.49,28.47-53.58-23.44h-72.27s-3.08,43.53,18.13,61.95c18.85,16.37,59.16,35.16,117.77,0Z"/>
  <path class="cls-3" d="m998.26,373.7c-51.35-7.26-53.58-46.88-53.58-46.88h174.51s.56-39.81.19-60.28-3.91-96.56-121.12-98.79c-117.21-2.23-123.91,113.86-123.91,120s-12.84,142.47,122.51,147.19c90.64,3.16,117.49-56.77,117.49-56.77l-36.84-36.84s-27.91,39.63-79.26,32.37Zm3.91-147.91c53.02,2.23,50.23,51.35,50.23,51.35h-105.49s2.23-53.58,55.26-51.35Z"/>
  <polygon class="cls-2" points="845.33 547.47 867.28 606.26 879.56 606.26 900.77 547.47 888.49 547.47 873.05 589.15 857.61 547.47 845.33 547.47"/>
  <path class="cls-2" d="m968.12,604.68h12.09v-33.86s2.19-16.01,21.91-16.2c.31-6.41.23-9.48.23-9.48,0,0-13.02-2.23-22.7,9.86-.37-10.02-.1-7.78-.1-7.78l-11.44-.41v57.86Z"/>
  <path class="cls-2" d="m1002.81,627.29s16.29,7.84,30.43-11.33c10.62-24.02,24.37-69.4,24.37-69.4h-12.47l-11.98,39.71-15.92-39.71h-11.72l20.74,54.34c-3.25,22.47-23.45,16.36-23.45,16.36v10.02Z"/>
  <rect class="cls-2" x="824.31" y="546.35" width="12.28" height="58.23"/>
  <circle class="cls-2" cx="830.45" cy="529.52" r="8.56"/>
  <path class="cls-2" d="m776.87,581.61s6.14-36.74-25.67-36.74c-30.05,0-27.91,30.92-27.91,34.19s2.88,26.18,24.93,26.55c22.55.38,27.14-11.06,27.14-11.06l-7.42-6.4s-5.54,7.76-17.12,7.28c-14.6-.61-14.14-13.82-14.14-13.82h40.19Zm-41.02-10.23s1.02-17.4,15.81-16.65c14.79.74,14.14,16.65,14.14,16.65h-29.95Z"/>
  <path class="cls-2" d="m956.77,581.19s6.14-36.74-25.67-36.74c-30.05,0-27.91,30.92-27.91,34.19s2.88,26.18,24.93,26.55c22.55.38,27.14-11.06,27.14-11.06l-7.42-6.4s-5.54,7.76-17.12,7.28c-14.6-.61-14.14-13.82-14.14-13.82h40.19Zm-41.02-10.23s1.02-17.4,15.81-16.65c14.79.74,14.14,16.65,14.14,16.65h-29.95Z"/>
  <path class="cls-2" d="m691.91,523.66c-4.09-.37-36.47,0-36.47,0v82.6h34.23s26.23-3.26,26.42-41.3c.17-33.49-20.09-40.93-24.19-41.3Zm.78,67.88c-5.35,4.7-24.66,2.63-24.66,2.63v-60.47c16.37-.19,22.21-.02,27.29,4.4,5.03,4.38,6.94,12.54,7.13,23.71.19,11.16-1.01,22.05-9.76,29.74Z"/>
  <rect class="cls-2" x="788.68" y="517.56" width="11.86" height="76.74"/>
  <path class="cls-2" d="m814.77,603.38l-3.21-7.53s-8.74,4-11.02-1.53h-11.86s.03,7.58,4.19,10.28c5.02,3.26,16.6,3.95,21.91-1.21Z"/>
</svg>