<?xml version="1.0" encoding="UTF-8"?>
<svg id="Capa_1" data-name="Capa 1" xmlns="http://www.w3.org/2000/svg" viewBox="0 0 500 500">
  <defs>
    <style>
      .cls-1 {
        fill: #01fff4;
      }

      .cls-2 {
        fill: #fff;
      }

      .cls-3 {
        fill: #fef104;
      }

      .cls-4 {
        fill: #2954ff;
      }
    </style>
  </defs>
  <rect class="cls-4" x="0" width="500" height="500" rx="28.48" ry="28.48"/>
  <g>
    <rect class="cls-3" x="22.19" y="166.9" width="35.39" height="79.01" rx="15.72" ry="15.72"/>
    <rect class="cls-1" x="22.19" y="210.29" width="35.39" height="79.01" rx="15.72" ry="15.72"/>
    <circle class="cls-2" cx="39.89" cy="224.1" r="17.69"/>
    <circle class="cls-1" cx="278.77" cy="150.44" r="17.69"/>
    <circle class="cls-2" cx="39.89" cy="144.7" r="17.69"/>
    <polygon class="cls-1" points="118.67 289.31 84.97 289.31 84.97 138.64 120.78 138.64 160.8 253.24 147.07 288.04 119.47 206.41 118.67 289.31"/>
    <polygon class="cls-3" points="200.83 289.31 234.53 289.31 234.53 138.64 198.72 138.64 147.07 288.04 173 288.07 200.02 206.41 200.83 289.31"/>
    <rect class="cls-1" x="263.3" y="180.61" width="30.1" height="108.7"/>
    <rect class="cls-1" x="319.62" y="127.7" width="30.45" height="135.38"/>
    <path class="cls-1" d="m376.88,282.9l-4.23-16.23s-24.22,11.99-22.57-9.88h-30.45s-1.3,18.34,7.64,26.1c7.94,6.9,24.93,14.81,49.62,0Z"/>
    <path class="cls-3" d="m426.73,265.5c-21.63-3.06-22.57-19.75-22.57-19.75h73.52s.23-16.77.08-25.4c-.15-8.55-1.65-40.68-51.03-41.62-49.38-.94-52.2,47.97-52.2,50.56s-5.41,60.02,51.61,62.01c38.19,1.33,49.5-23.92,49.5-23.92l-15.52-15.52s-11.76,16.7-33.39,13.64Zm1.65-62.31c22.34.94,21.16,21.63,21.16,21.63h-44.44s.94-22.57,23.28-21.63Z"/>
    <polygon class="cls-2" points="362.3 338.7 371.55 363.47 376.72 363.47 385.66 338.7 380.48 338.7 373.98 356.26 367.47 338.7 362.3 338.7"/>
    <path class="cls-2" d="m414.03,362.81h5.09v-14.27s.92-6.75,9.23-6.82c.13-2.7.1-3.99.1-3.99,0,0-5.49-.94-9.56,4.15-.16-4.22-.04-3.28-.04-3.28l-4.82-.17v24.38Z"/>
    <path class="cls-2" d="m428.64,372.33s6.86,3.3,12.82-4.77c4.48-10.12,10.27-29.24,10.27-29.24h-5.25l-5.05,16.73-6.71-16.73h-4.94l8.74,22.89c-1.37,9.47-9.88,6.89-9.88,6.89v4.22Z"/>
    <rect class="cls-2" x="353.44" y="338.23" width="5.17" height="24.53"/>
    <circle class="cls-2" cx="356.03" cy="331.14" r="3.61"/>
    <path class="cls-2" d="m333.45,353.09s2.59-15.48-10.82-15.48c-12.66,0-11.76,13.03-11.76,14.41s1.21,11.03,10.5,11.19c9.5.16,11.43-4.66,11.43-4.66l-3.13-2.7s-2.33,3.27-7.21,3.07c-6.15-.26-5.96-5.82-5.96-5.82h16.93Zm-17.28-4.31s.43-7.33,6.66-7.02c6.23.31,5.96,7.02,5.96,7.02h-12.62Z"/>
    <path class="cls-2" d="m409.25,352.91s2.59-15.48-10.82-15.48c-12.66,0-11.76,13.03-11.76,14.41s1.21,11.03,10.5,11.19c9.5.16,11.43-4.66,11.43-4.66l-3.13-2.7s-2.33,3.27-7.21,3.07c-6.15-.26-5.96-5.82-5.96-5.82h16.93Zm-17.28-4.31s.43-7.33,6.66-7.02c6.23.31,5.96,7.02,5.96,7.02h-12.62Z"/>
    <path class="cls-2" d="m297.66,328.67c-1.72-.16-15.36,0-15.36,0v34.8h14.42s11.05-1.37,11.13-17.4c.07-14.11-8.47-17.24-10.19-17.4Zm.33,28.6c-2.25,1.98-10.39,1.11-10.39,1.11v-25.48c6.9-.08,9.36,0,11.5,1.85,2.12,1.84,2.92,5.28,3,9.99.08,4.7-.42,9.29-4.11,12.53Z"/>
    <rect class="cls-2" x="338.43" y="326.1" width="5" height="32.33"/>
    <path class="cls-2" d="m349.42,362.26l-1.35-3.17s-3.68,1.69-4.64-.65h-5s.01,3.2,1.76,4.33c2.12,1.37,7,1.67,9.23-.51Z"/>
  </g>
</svg>