<svg id="Capa_1" data-name="Capa 1" xmlns="http://www.w3.org/2000/svg" viewBox="0 0 1309.74 463.76"><defs><style>.cls-1{fill:#313634;}.cls-2{fill:#70c516;}</style></defs><g id="Grupo_3" data-name="Grupo 3"><g id="Grupo_2-2" data-name="Grupo 2-2"><path id="Fill-1" class="cls-1" d="M457.86,250.12V289.9H437.65V249.46a24.36,24.36,0,0,0-2.61-13,9.67,9.67,0,0,0-8.48-3.91,13.88,13.88,0,0,0-10.43,4.56,16.87,16.87,0,0,0-4.57,13.05V289.9H390.7V216.2h20.21v8.49a24.79,24.79,0,0,1,18.91-9.78,21.43,21.43,0,0,1,12.4,3.92,24.53,24.53,0,0,1,8.48,9.78,28.52,28.52,0,0,1,11.08-10.44,29.87,29.87,0,0,1,14.35-3.91A28.53,28.53,0,0,1,497,222.08a29.73,29.73,0,0,1,7.83,22.18V288.6H484.62V249.46c0-11.09-3.91-17-12.39-17a13,13,0,0,0-10.44,4.56,18.35,18.35,0,0,0-3.91,13.05Zm60.66-43a10.81,10.81,0,0,1-3.26-8.48,12.39,12.39,0,0,1,3.26-8.48,10.81,10.81,0,0,1,8.48-3.26,13.68,13.68,0,0,1,8.48,3.26,10.81,10.81,0,0,1,3.26,8.48,12.43,12.43,0,0,1-3.26,8.48,10.81,10.81,0,0,1-8.48,3.26A12.42,12.42,0,0,1,518.52,207.08ZM690.7,216.2H672.44V256A16.79,16.79,0,0,1,667.87,269a13.88,13.88,0,0,1-10.43,4.56c-8.48,0-12.4-5.86-12.4-17V216.87H624.83v44.34a28.69,28.69,0,0,0,7.82,22.18,28.09,28.09,0,0,0,20.22,7.83,23.77,23.77,0,0,0,19.56-11.1v9.79h20.22v-58.7h11.07v33.92A26.07,26.07,0,0,0,710.89,284a24.09,24.09,0,0,0,17.61,7.18,29.25,29.25,0,0,0,20.21-8.49l-7.82-14.34a12.37,12.37,0,0,1-9.78,5.21,5.9,5.9,0,0,1-5.22-2.61,9.66,9.66,0,0,1-2-6.51V231.86h17.61v-15H724V194.68H703.72v22.18H690.67Zm-174.14,0h20.22v73.7H516.57V216.2Zm51.53,32.62V289.9H547.87V216.2h20.22v8.49A26.82,26.82,0,0,1,589,215.57,22.63,22.63,0,0,1,607.87,224a30.12,30.12,0,0,1,7.82,21.52v44.35H595.48V248.16c0-11.08-3.91-16.95-12.39-16.95a13,13,0,0,0-10.44,4.57,16,16,0,0,0-4.57,13.05Zm255,3.92A36.9,36.9,0,0,1,812,279.47a39.37,39.37,0,0,1-54.77,0,37.78,37.78,0,0,1-.06-53.43l.06,0A39.37,39.37,0,0,1,812,226a36.92,36.92,0,0,1,11.09,26.74Zm-56.73,0a20.24,20.24,0,0,0,5.21,14.34,17.38,17.38,0,0,0,26.09,0,21.43,21.43,0,0,0,5.22-14.34,23.24,23.24,0,0,0-5.22-15,17.42,17.42,0,0,0-24.59-1.49,19.18,19.18,0,0,0-1.5,1.49A23.29,23.29,0,0,0,766.36,252.74Zm114.78,13.69a22.3,22.3,0,0,1-7.83,17.6,29,29,0,0,1-20.22,6.52,82.36,82.36,0,0,1-17-2.61,45.57,45.57,0,0,1-15.65-8.48l9.13-13a39.81,39.81,0,0,0,24.13,9.13,19.18,19.18,0,0,0,6.52-1.31c1.31-1.31,2.61-2.61,2.61-3.91a6.71,6.71,0,0,0-3.26-4.57,42.09,42.09,0,0,0-9.13-3.91c-3.91-1.31-7.18-2.61-9.13-3.26a26.71,26.71,0,0,1-7.17-3.91A17.57,17.57,0,0,1,825.71,239a19.79,19.79,0,0,1,7.82-16.31,30.84,30.84,0,0,1,20.88-6.52,44,44,0,0,1,25.43,8.49L872,238.39a31.64,31.64,0,0,0-18.91-6.52c-6.52,0-9.13,2-9.13,5.22,0,1.95,1.31,3.26,3.26,4.56a37.2,37.2,0,0,0,9.79,3.91c4.56,1.31,7.83,2.61,9.78,3.27a26.64,26.64,0,0,1,7.18,3.91c4.56,1.3,7.17,6.52,7.17,13.7Z"/><path id="Fill-8" class="cls-2" d="M891.88,289.52a10.78,10.78,0,0,1-3.49-8.37,12.39,12.39,0,0,1,3-8.56,10.83,10.83,0,0,1,8.37-3.49,13.77,13.77,0,0,1,8.57,3,10.83,10.83,0,0,1,3.48,8.37,12.36,12.36,0,0,1-3,8.56,10.77,10.77,0,0,1-8.37,3.48,11.24,11.24,0,0,1-8.56-3"/><path id="Fill-9" class="cls-2" d="M952.09,272.86a22.6,22.6,0,0,0,18-10.92l12.1,13.38a41.94,41.94,0,0,1-30.24,15.82,36.84,36.84,0,0,1-27.66-9.7,35,35,0,0,1-11.82-27.08,36.79,36.79,0,0,1,34.71-38.75c.7,0,1.39-.05,2.08-.05A44.71,44.71,0,0,1,965,218.39a40.33,40.33,0,0,1,14.61,9.4l-10.06,14a27,27,0,0,0-8.65-6.3,27.48,27.48,0,0,0-9.86-2.34,21.12,21.12,0,0,0-13.55,5.58A18.21,18.21,0,0,0,932,253.22a17.32,17.32,0,0,0,6.25,14.18,16.59,16.59,0,0,0,13.85,5.5"/><path id="Fill-10" class="cls-2" d="M1058.5,250.42a37,37,0,0,1-10.36,27,39.39,39.39,0,0,1-54.78,1.46,37.78,37.78,0,0,1-1.48-53.41l0,0A39.38,39.38,0,0,1,1046.7,224a36.9,36.9,0,0,1,11.8,26.43ZM1002.44,252a20.29,20.29,0,0,0,5.6,14.2,17.42,17.42,0,0,0,24.63.82,17.24,17.24,0,0,0,1.44-1.52A21.47,21.47,0,0,0,1039,251a23.31,23.31,0,0,0-5.63-14.85,17.42,17.42,0,0,0-24.62-.84,17.71,17.71,0,0,0-1.46,1.54,20.15,20.15,0,0,0-4.8,15.14Z"/><path id="Fill-11" class="cls-2" d="M1131.58,250.11v39.78h-20.22V249.46a24.28,24.28,0,0,0-2.61-13.05,9.68,9.68,0,0,0-8.47-3.91,13.92,13.92,0,0,0-10.44,4.56,16.83,16.83,0,0,0-4.56,13.05v39.78h-20.23V216.2h20.23v8.48a24.7,24.7,0,0,1,18.91-9.78,21.41,21.41,0,0,1,12.39,3.91,24.25,24.25,0,0,1,8.48,9.78,28.48,28.48,0,0,1,11.09-10.44,29.73,29.73,0,0,1,14.35-3.91,28.54,28.54,0,0,1,20.87,7.83,29.66,29.66,0,0,1,7.82,22.18v44.34H1159V249.46c0-11.09-3.91-17-12.39-17a13,13,0,0,0-10.43,4.56,16,16,0,0,0-4.57,13.05"/><path id="Fill-12" class="cls-1" d="M247.87,211.63a26.29,26.29,0,0,0-10.44-11.74,35.12,35.12,0,0,0-17-5.87,32.71,32.71,0,0,0-24.78,6.52A28,28,0,0,0,184,222.72a30.41,30.41,0,0,0,6.52,24.13,29,29,0,0,0,20.87,11.08A32.1,32.1,0,0,0,230.27,254a29.84,29.84,0,0,1-7.83,15.66,16.23,16.23,0,0,1-14.35,4.57,13.75,13.75,0,0,1-7.17-2.61L188.52,286a34.46,34.46,0,0,0,7.18,3.91,38.65,38.65,0,0,0,12.39,3.27,37,37,0,0,0,28-8.48,51,51,0,0,0,10.43-14.34,96.78,96.78,0,0,0,5.87-22.83,73.92,73.92,0,0,0-4.57-35.87Zm-21.52,25.43a15.69,15.69,0,0,1-11.09,2.61,12,12,0,0,1-9.13-5.22A19.08,19.08,0,0,1,203.52,224a13.65,13.65,0,0,1,4.56-9.13,11.72,11.72,0,0,1,10.43-2.61,14.59,14.59,0,0,1,9.79,5.22,15.35,15.35,0,0,1,3.26,10.44,16.18,16.18,0,0,1-5.22,9.12Z"/><path id="Fill-13" class="cls-1" d="M320.26,211.63a26.33,26.33,0,0,0-10.43-11.74A35.19,35.19,0,0,0,292.88,194a32.73,32.73,0,0,0-24.79,6.52,28.06,28.06,0,0,0-11.75,22.18,30.48,30.48,0,0,0,6.52,24.13,29,29,0,0,0,20.88,11.08A32,32,0,0,0,302.65,254a29.76,29.76,0,0,1-7.83,15.66,16.2,16.2,0,0,1-14.34,4.57,13.82,13.82,0,0,1-7.18-2.61L260.91,286a34.64,34.64,0,0,0,7.17,3.91,38.38,38.38,0,0,0,12.4,3.27,37,37,0,0,0,28-8.48A51.41,51.41,0,0,0,319,270.33a96.78,96.78,0,0,0,5.87-22.83,66.94,66.94,0,0,0-4.56-35.87Zm-21.52,25.44a15.69,15.69,0,0,1-11.09,2.61,12,12,0,0,1-9.13-5.22A19.2,19.2,0,0,1,275.91,224a13.66,13.66,0,0,1,4.57-9.12,11.67,11.67,0,0,1,10.43-2.61,14.56,14.56,0,0,1,9.78,5.21A15.39,15.39,0,0,1,304,227.94a16.12,16.12,0,0,1-5.22,9.13Z"/><path id="Fill-14" class="cls-2" d="M374.39,180.33l20.22-20.22s-13-33.26-60-60.65L314.4,119.69l23.48,23.47-5.22,5.22a122.77,122.77,0,1,0,13.69,13.7l5.22-5.22Zm-25.43,60a95.44,95.44,0,1,1,0-.66c0,.22,0,.44,0,.66Z"/></g></g></svg>