<?xml version="1.0" encoding="UTF-8"?><svg id="Capa_1" xmlns="http://www.w3.org/2000/svg" xmlns:xlink="http://www.w3.org/1999/xlink" viewBox="0 0 500 500"><defs><style>.cls-1,.cls-2{fill:#fff;}.cls-3{fill:#044a83;}.cls-4{fill:#0070a9;}.cls-5{fill:#0a2859;}.cls-2{filter:url(#drop-shadow-1);}.cls-6{fill:#015893;}</style><filter id="drop-shadow-1" filterUnits="userSpaceOnUse"><feOffset dx="5.72" dy="5.72"/><feGaussianBlur result="blur" stdDeviation="5.72"/><feFlood flood-color="#000" flood-opacity=".37"/><feComposite in2="blur" operator="in"/><feComposite in="SourceGraphic"/></filter></defs><rect class="cls-5" x="29.39" y="27.67" width="441.22" height="441.22" rx="50.58" ry="50.58"/><g><g><polygon class="cls-4" points="149.5 74.15 49 249.28 149.5 422.42 347.51 422.42 451 248.28 348.51 74.15 149.5 74.15"/><polygon class="cls-3" points="149.5 73.65 250 244.8 149.5 422.91 49 248.28 149.5 73.65"/><polygon class="cls-6" points="451 248.28 250 244.8 149.5 422.91 350.5 422.91 451 248.28"/></g><g><path class="cls-1" d="M109.53,171.33v168.16h33.83v-52.74s94.53,19.9,96.52-56.72c1.99-76.62-100.5-59.7-130.35-58.71Zm37.33,81.41v-46.27s55.23-10.45,55.72,23.13c.5,33.58-55.72,23.13-55.72,23.13Z"/><polygon class="cls-1" points="385.67 174.14 338.9 172.15 284.67 245.78 347.86 335.33 393.63 335.33 331.93 247.27 385.67 174.14"/><polygon class="cls-2" points="229.94 174.14 284.67 245.78 221.48 335.33 269.25 335.33 331.93 247.27 281.68 174.14 229.94 174.14"/><rect class="cls-1" x="402.09" y="299.01" width="37.81" height="36.32"/></g></g></svg>