<?xml version="1.0" encoding="UTF-8"?><svg id="Capa_1" xmlns="http://www.w3.org/2000/svg" viewBox="0 0 1181.91 305.44"><defs><style>.cls-1{fill:#003b75;fill-rule:evenodd;}</style></defs><path class="cls-1" d="M99.17,31.97h28.85V204.52c0,13.19,6.72,18.54,21.37,18.54h1000.6v22.87H125.94c-7.46,0-26.77-1.16-26.77-23.27V31.97h0Zm30.67,222.26h1020.15v22.86H53.65c-16.25,0-23.33-6.23-23.33-22.02V31.97h60.99V210.49c0,35.32,6.18,43.74,38.53,43.74h0Zm91.74-120.55c.26,0,.66,.03,1.19,.08,.55,.05,.95,.08,1.21,.08,4.77,0,8.41-1.37,10.92-4.14,2.5-2.74,3.74-6.7,3.74-11.87s-1.19-9.31-3.56-11.86c-2.35-2.53-6.06-3.82-11.1-3.82-.26,0-.66,.03-1.21,.08-.53,.05-.92,.08-1.19,.08v31.38h0Zm-21.78,63.86V84.77h23.39c12.42,0,21.65,2.69,27.66,8.07,6.04,5.38,9.04,13.61,9.04,24.68s-2.9,18.77-8.73,24.6c-5.83,5.85-13.97,8.78-24.49,8.78-1.32,0-2.35,0-3.03-.03-.71-.03-1.37-.08-1.98-.13l-.08,46.8h-21.78Zm86.88-37.31h15c-1.55-7.88-2.93-16.14-4.16-24.76-1.24-8.62-2.32-17.72-3.24-27.29-1.13,8.44-2.35,17.01-3.61,25.68-1.27,8.67-2.58,17.45-3.98,26.37h0Zm-30.03,37.31l26.26-112.77h23.57l25.02,112.77h-22.49l-3.77-19.77h-22.65l-3.48,19.77h-22.46Zm122.42-43.16l10.57,11.66c1.03-3.14,1.79-6.67,2.27-10.63,.5-3.93,.74-8.62,.74-14.03,0-12.13-1.45-21.3-4.35-27.45-2.93-6.14-7.2-9.23-12.87-9.23s-10.23,3.16-13.05,9.47c-2.82,6.3-4.24,16.03-4.24,29.16,0,11.26,1.45,19.85,4.35,25.76,2.93,5.88,7.15,8.83,12.71,8.83,.48,0,.98-.03,1.56-.08,.55-.05,1.21-.13,1.93-.24l-11.81-13.13,12.21-10.1h0Zm36.99,40.76l-12.21,10.6-10.6-11.68c-2.35,1.56-4.98,2.69-7.91,3.45-2.9,.74-6.22,1.11-9.91,1.11-12.52,0-22.23-5.17-29.16-15.53-6.93-10.34-10.39-24.89-10.39-43.64,0-17.4,3.53-31.11,10.57-41.13,7.07-10.02,16.72-15.03,28.98-15.03s22.38,5.17,29.32,15.48c6.93,10.34,10.39,24.94,10.39,43.85,0,9.28-.87,17.19-2.64,23.76-1.74,6.56-4.43,11.94-8.04,16.11l11.6,12.66h0Zm82.76-110.37v70.82c0,8.67-.26,14.82-.76,18.43-.53,3.64-1.37,6.64-2.56,8.99-2.74,5.43-6.67,9.41-11.86,12.02-5.17,2.61-11.81,3.9-19.96,3.9s-14.82-1.29-20.04-3.9c-5.25-2.61-9.2-6.59-11.86-12.02-1.24-2.4-2.11-5.46-2.64-9.1-.5-3.66-.77-9.76-.77-18.32V84.77h22.49v72.61c0,9.2,.95,15.16,2.82,17.8,1.87,2.66,5.2,3.98,9.99,3.98s8.25-1.34,10.07-4.06c1.82-2.69,2.74-8.59,2.74-17.72V84.77h22.33Zm17.06,112.77V84.77h47.43v20.86h-25.65v22.78h23.25v20.7h-23.25v26.42h25.65v22.01h-47.43Zm73.22,0V105.63h-17.22v-20.86h57.06v20.86h-17.22v91.91h-22.62Zm50.99,0V84.77h47.43v20.86h-25.65v22.78h23.25v20.7h-23.25v26.42h25.65v22.01h-47.43Zm100.27,0l-8.89-22.94c-.87-2.37-1.69-4.96-2.43-7.75-.74-2.82-1.4-5.77-1.98-8.86-.55,3.14-1.19,6.12-1.85,8.91-.69,2.82-1.37,5.38-2.08,7.7l-7.73,22.94h-25.66l26.1-57.08-23.78-55.69h23.62l8.52,23.7c.45,1.29,.97,3.03,1.53,5.19,.58,2.16,1.21,4.96,1.95,8.41,.61-2.93,1.24-5.56,1.85-7.88,.6-2.32,1.24-4.24,1.85-5.8l8.36-23.62h23.25l-23.73,55.69,25.5,57.08h-24.42Zm50.89-63.86c.26,0,.66,.03,1.19,.08,.55,.05,.95,.08,1.21,.08,4.77,0,8.41-1.37,10.92-4.14,2.5-2.74,3.74-6.7,3.74-11.87s-1.19-9.31-3.56-11.86c-2.35-2.53-6.06-3.82-11.1-3.82-.26,0-.66,.03-1.21,.08-.53,.05-.92,.08-1.19,.08v31.38h0Zm-21.78,63.86V84.77h23.39c12.42,0,21.65,2.69,27.66,8.07,6.04,5.38,9.04,13.61,9.04,24.68s-2.9,18.77-8.73,24.6c-5.83,5.85-13.97,8.78-24.49,8.78-1.32,0-2.35,0-3.03-.03-.71-.03-1.37-.08-1.98-.13l-.08,46.8h-21.78Zm93.76-63.86c.26,0,.68,.03,1.27,.08,.61,.05,1.03,.08,1.29,.08,4.88,0,8.57-1.37,11.02-4.09,2.48-2.74,3.72-6.75,3.72-12.07s-1.13-9.33-3.4-11.81c-2.27-2.48-5.88-3.72-10.89-3.72-.77,0-1.37,.03-1.77,.05-.42,.03-.79,.05-1.16,.1l-.08,31.38h0Zm-21.78,63.86V84.77h23.41c12.87,0,22.2,2.53,27.97,7.57,5.8,5.06,8.7,13.1,8.7,24.18,0,8.04-1.48,14.5-4.43,19.35-2.98,4.88-7.43,8.28-13.42,10.23l21.65,51.44h-23.73l-18.38-46.64v46.64h-21.78Zm72.61,0V84.77h47.43v20.86h-25.65v22.78h23.25v20.7h-23.25v26.42h25.65v22.01h-47.43Zm59.17-3.93v-23.41c2.82,2.48,5.62,4.33,8.33,5.56,2.74,1.24,5.51,1.85,8.28,1.85,3.82,0,6.8-1,8.99-3.01,2.19-2,3.3-4.75,3.3-8.2,0-4.27-2.95-8.91-8.89-13.89-1.66-1.4-2.9-2.48-3.72-3.24-6.88-6.2-11.63-11.73-14.21-16.66-2.56-4.9-3.85-10.47-3.85-16.72,0-9.73,2.74-17.59,8.23-23.6,5.48-5.98,12.66-8.99,21.52-8.99,3.14,0,6.22,.45,9.28,1.35,3.08,.9,6.3,2.32,9.7,4.22v19.91c-3.95-1.9-7.04-3.22-9.23-3.93-2.19-.71-4.14-1.08-5.83-1.08-3.24,0-5.91,1.03-7.96,3.06-2.06,2.03-3.08,4.69-3.08,7.99,0,2.87,.76,5.56,2.32,8.07,1.55,2.5,5.14,6.19,10.81,11.07,7.57,6.51,12.44,11.89,14.61,16.19,2.16,4.32,3.24,9.49,3.24,15.58,0,10.26-2.9,18.35-8.7,24.31-5.78,5.93-13.69,8.91-23.68,8.91-3.8,0-7.33-.45-10.55-1.32s-6.17-2.21-8.91-4.01h0Zm60.72,0v-23.41c2.82,2.48,5.62,4.33,8.33,5.56,2.74,1.24,5.51,1.85,8.28,1.85,3.82,0,6.8-1,8.99-3.01,2.19-2,3.3-4.75,3.3-8.2,0-4.27-2.95-8.91-8.89-13.89-1.66-1.4-2.9-2.48-3.72-3.24-6.88-6.2-11.63-11.73-14.21-16.66-2.56-4.9-3.85-10.47-3.85-16.72,0-9.73,2.74-17.59,8.23-23.6,5.48-5.98,12.66-8.99,21.51-8.99,3.14,0,6.22,.45,9.28,1.35,3.08,.9,6.3,2.32,9.7,4.22v19.91c-3.95-1.9-7.04-3.22-9.23-3.93-2.19-.71-4.14-1.08-5.83-1.08-3.24,0-5.91,1.03-7.96,3.06-2.06,2.03-3.09,4.69-3.09,7.99,0,2.87,.77,5.56,2.32,8.07,1.55,2.5,5.14,6.19,10.81,11.07,7.57,6.51,12.44,11.89,14.61,16.19,2.16,4.32,3.24,9.49,3.24,15.58,0,10.26-2.9,18.35-8.7,24.31-5.77,5.93-13.68,8.91-23.68,8.91-3.8,0-7.33-.45-10.55-1.32-3.22-.87-6.17-2.21-8.91-4.01h0Zm66.32,7.14v-18.05h5.46l3.27,12.32,3.24-12.32h5.47v18.05h-3.38v-14.21l-3.59,14.21h-3.51l-3.57-14.21v14.21h-3.38Zm21.04,0v-3.46h3.46v3.46h-3.46Zm7.04,0v-18.05h7.68c1.93,0,3.33,.16,4.2,.49,.87,.32,1.58,.9,2.1,1.73,.53,.83,.79,1.78,.79,2.85,0,1.35-.4,2.47-1.19,3.36-.79,.88-1.99,1.44-3.57,1.67,.79,.46,1.44,.97,1.95,1.52,.51,.55,1.2,1.53,2.07,2.93l2.21,3.52h-4.36l-2.64-3.93c-.94-1.4-1.58-2.29-1.92-2.65-.34-.36-.71-.61-1.1-.75-.39-.13-1-.2-1.84-.2h-.74v7.54h-3.65Zm3.65-10.42h2.7c1.75,0,2.84-.07,3.28-.22,.43-.15,.77-.4,1.02-.76,.24-.36,.37-.81,.37-1.35,0-.61-.16-1.1-.49-1.47-.33-.37-.78-.61-1.38-.71-.29-.04-1.18-.06-2.66-.06h-2.84v4.58h0Zm14.53,10.42v-3.46h3.46v3.46h-3.46Z"/></svg>