<?xml version="1.0" encoding="UTF-8"?><svg id="Capa_1" xmlns="http://www.w3.org/2000/svg" viewBox="0 0 1084.64 225.65"><defs><style>.cls-1{fill:#d22517;}.cls-2{fill:#263578;}</style></defs><path class="cls-1" d="M30.39,191.78L100.38,43.23h36.08v34.48h-11.64l-19.64,41.9h23.42l3.06-.15,3.05-.15h1.75v72.46h-17.9l9.75-20.66,1.02-2.18,.73-2.18,.58-1.89,.29-1.75,.29-1.6-.15-1.31-.15-1.16-.44-1.02-.73-.87-.87-.87-1.16-.58-1.31-.58-1.6-.29-1.75-.44-2.18-.15h-32.01l-17.75,37.54H30.39ZM136.46,43.23h50.05l2.91,.29,2.76,.29,2.62,.15,2.47,.44,2.18,.29,2.18,.58,2.04,.58,1.75,.58,1.75,.73,1.46,.87,1.31,.73,1.16,.87,1.02,1.02,1.02,1.02,.73,1.16,.73,1.6,.44,1.46,.44,1.6,.29,1.6v3.93l-.29,2.18-.44,2.33-.44,2.33-.58,2.47-.87,2.62-1.02,2.62-1.16,3.06-1.16,2.91-1.45,3.2-4.51,9.46-1.46,3.05-1.45,2.91-1.6,2.76-1.75,2.76-1.45,2.47-1.89,2.33-1.75,2.47-1.75,2.04-1.89,2.18-1.89,1.89-2.04,1.89-1.89,1.75-2.18,1.46-2.04,1.6-2.18,1.31-2.18,1.16-1.75,.87-1.89,.87-2.04,.87-2.04,.73-2.18,.73-2.33,.73-4.66,1.16,2.62,.44,2.18,.44,2.33,.58,1.89,.58,1.6,.58,1.6,.73,1.16,.73,1.02,.73,.73,.87,.73,1.02,.44,1.16,.44,1.16,.29,1.46v3.2l-.29,1.89-.29,2.04-.44,1.89-.58,2.33-.73,2.33-.87,2.47-1.02,2.76-1.31,2.62-1.31,2.91-9.75,20.66h-21.53V119.32l.87-.14,2.62-.29,2.33-.44,2.04-.58,1.89-.73,1.6-.73,1.89-1.16,1.75-1.31,1.89-1.75,1.6-1.89,1.75-2.04,1.46-2.47,1.6-2.76,1.45-2.91,4.51-9.6,.87-2.04,.73-1.75,.29-1.75,.15-1.45-.15-.73v-.58l-.29-.58-.15-.58-.29-.44-.44-.44-.44-.44-.44-.29-.73-.44-1.02-.44-1.31-.15-1.45-.29-1.6-.15-1.89-.15-4.66-.15h-16.44V43.23h0Z"/><polygon class="cls-1" points="172.39 191.78 242.23 43.23 350.48 43.23 335.05 75.97 267.55 75.97 254.74 103.61 317.89 103.61 304.94 131.26 241.65 131.26 228.55 159.04 297.23 159.04 281.8 191.78 172.39 191.78 172.39 191.78"/><path class="cls-1" d="M294.17,191.78L364.01,43.23h29.68v34.48h-5.09l-37.39,79.58h36.52l1.6-.14,1.6-.29,1.6-.29,1.16-.29v33.46l-3.06,.58-3.93,.44-4.07,.44-4.07,.44-4.51,.15h-79.88ZM393.69,43.23h52.67l4.07,.15,3.64,.44,3.49,.44,3.2,.44,3.06,.87,2.76,.73,2.62,1.02,2.18,1.02,2.18,1.31,1.75,1.31,1.75,1.31,1.31,1.75,1.16,1.75,.87,1.89,.58,2.04,.44,1.75,.29,2.04,.15,2.04-.15,2.47-.29,2.33-.44,2.91-.44,2.76-.87,3.06-.87,3.2-1.02,3.35-1.31,3.64-1.31,3.64-1.45,3.93-1.89,4.07-1.75,4.22-2.04,4.51-7.42,15.42-2.04,4.51-2.18,4.51-2.18,4.07-2.33,4.07-2.04,3.78-2.33,3.49-2.04,3.64-2.18,3.2-2.33,3.05-2.18,2.91-2.18,2.91-2.33,2.47-2.04,2.33-2.18,2.18-2.33,2.04-2.04,1.89-2.62,1.89-2.76,1.75-2.76,1.75-3.06,1.6-2.91,1.31-3.2,1.31-3.35,1.16-3.49,1.02-3.49,1.02-3.64,.73-.73,.15v-33.46h.29l1.45-.58,1.45-.44,1.45-.44,1.31-.73,1.31-.73,1.16-.87,1.16-.87,1.31-1.02,1.16-1.02,1.02-1.02,1.02-1.31,1.02-1.46,1.16-1.75,1.45-2.18,1.31-2.47,3.35-6.4,3.78-8,7.13-14.84,3.49-7.71,2.76-6.26,1.75-4.51,.58-1.6,.29-1.31,.15-1.31,.15-1.16v-1.31l-.15-1.02-.15-1.02-.44-.87-.44-.87-.58-.58-.58-.73-.87-.58-.87-.44-1.02-.44-1.02-.29-1.31-.15-1.31-.29h-33.75V43.23h0Z"/><path class="cls-1" d="M439.66,191.78L509.64,43.23h34.34v34.48h-9.89l-20.22,43.07h22.11l5.82-.15,2.18-.15v33.75l-2.47,.29-3.78,.29-3.64,.29-3.93,.15h-32.59l-17.02,36.52h-40.88Zm104.32-148.55h42.63l3.49,.29,3.35,.29,3.05,.29,2.91,.29,2.91,.44,2.47,.58,2.47,.58,2.04,.58,1.89,.87,1.89,.73,1.45,.87,1.46,1.02,1.16,1.02,1.02,1.02,1.02,1.45,.58,1.46,.58,1.75,.44,1.89,.29,2.04v2.04l-.15,2.33-.29,2.47-.43,2.76-.73,2.76-.73,2.91-1.02,3.2-1.31,3.2-1.31,3.49-1.6,3.49-1.6,3.93-5.53,11.64-1.89,3.93-1.89,3.64-2.04,3.64-2.04,3.35-2.04,3.35-1.89,2.91-2.18,3.06-2.18,2.62-2.18,2.62-2.33,2.33-2.18,2.18-2.18,2.04-2.48,1.89-2.33,1.6-2.47,1.6-2.33,1.45-1.89,1.02-2.33,.87-2.33,.87-2.47,.87-2.62,.73-2.76,.58-2.91,.73-3.06,.58-3.2,.44-3.2,.44h-1.02v-33.75h.44l2.33-.15,1.89-.44,1.75-.29,1.6-.29,1.31-.44,1.75-.87,1.75-1.16,1.75-1.31,1.6-1.75,1.45-1.75,1.45-2.18,1.45-2.33,1.31-2.62,5.09-11.2,1.16-2.33,.87-2.33,.58-2.04,.44-1.6v-3.06l-.15-1.02-.29-.58-.15-.29-.58-.73-.87-.58-1.16-.44-1.45-.29-1.75-.29-2.04-.15-2.18-.29h-19.35V43.23h0Z"/><path class="cls-1" d="M553.29,191.78l110.43-132.98v50.05l-25.31,30.55h25.31v27.5h-48.45l-20.37,24.88h-41.61Zm110.43-132.98l12.95-15.57h61.98l-28.95,148.55h-42.77l4.8-24.88h-8v-27.5h13.68l11.64-60.96-25.32,30.41V58.8h0Z"/><polygon class="cls-1" points="862.03 135.33 860.14 139.55 858.25 143.48 856.21 147.4 854.32 150.9 852.13 154.39 850.09 157.88 848.06 160.93 845.88 163.99 843.69 166.75 841.51 169.37 839.18 171.99 837 174.17 834.68 176.36 832.35 178.25 829.87 180.14 827.4 181.74 825.22 183.2 822.6 184.5 819.98 185.67 817.36 186.83 814.45 187.85 811.54 188.87 808.34 189.74 805.14 190.32 801.79 191.05 798.16 191.63 794.67 192.07 790.74 192.65 786.95 192.94 782.88 193.23 778.81 193.23 774.59 193.23 769.35 193.23 764.69 193.09 760.04 192.8 755.82 192.51 751.89 192.07 748.11 191.34 744.61 190.76 741.56 189.89 738.65 189.16 735.88 188.14 733.41 186.98 731.23 185.81 729.48 184.5 728.03 183.2 726.57 181.59 725.99 180.87 725.55 179.99 724.97 179.12 724.68 178.25 724.1 176.21 723.66 173.88 723.37 171.56 723.37 168.79 723.66 166.03 724.1 162.83 724.68 159.48 725.55 155.99 726.57 152.21 727.88 148.28 729.34 144.06 730.94 139.69 732.83 135.04 735.01 130.24 737.34 125.14 744.47 110.01 746.94 104.92 749.27 100.12 751.89 95.46 754.22 91.1 756.69 86.88 759.16 82.81 761.64 79.17 764.11 75.68 766.58 72.33 769.06 69.13 771.68 66.37 774 63.6 776.62 61.27 779.1 58.95 781.72 56.91 784.33 55.02 786.81 53.42 789.57 51.82 792.48 50.51 795.53 49.2 798.88 48.03 802.23 47.01 805.87 46 809.5 45.12 813.58 44.25 817.65 43.67 821.87 43.09 826.38 42.51 831.04 42.21 835.69 41.92 840.64 41.63 845.73 41.63 849.95 41.63 853.73 41.78 857.37 42.07 860.86 42.36 864.21 42.8 867.26 43.23 870.17 43.81 872.79 44.25 875.27 44.98 877.45 45.71 879.63 46.58 881.38 47.45 883.12 48.61 884.72 49.63 885.89 50.94 887.05 52.11 887.92 53.71 888.8 55.45 889.38 57.2 889.82 59.24 890.11 61.56 890.11 63.89 889.96 66.37 889.67 68.98 889.09 71.75 888.51 74.8 887.64 78 886.61 81.35 885.31 84.84 883.85 88.48 882.25 92.26 880.5 96.19 880.21 96.63 839.48 96.63 840.78 93.57 841.95 90.81 842.68 88.19 843.26 85.86 843.4 84.84 843.4 83.97 843.4 82.95 843.26 82.08 843.26 81.5 842.97 80.77 842.68 80.19 842.24 79.75 841.8 79.17 841.37 78.88 840.06 78.15 838.6 77.57 836.71 77.13 834.38 76.7 831.76 76.55 828.85 76.26 825.51 76.26 823.33 76.26 821.29 76.4 819.4 76.55 817.36 76.84 815.47 77.13 813.72 77.57 812.12 77.86 810.52 78.44 808.92 79.02 807.32 79.61 805.87 80.19 804.56 81.06 803.25 81.93 802.09 82.66 800.92 83.68 799.9 84.7 798.45 86.3 796.99 88.19 795.39 90.66 793.65 93.57 791.75 96.92 789.72 100.85 787.53 105.07 785.21 109.87 778.08 125.14 775.9 129.94 774 134.16 772.4 138.09 771.09 141.44 770.22 144.35 769.49 146.82 769.06 148.86 769.06 149.59 769.06 150.31 769.2 151.33 769.35 152.35 769.78 153.08 770.36 153.95 770.95 154.82 771.68 155.41 772.55 155.99 773.57 156.57 774.88 157.15 776.19 157.59 777.5 157.88 779.1 158.17 780.84 158.32 782.74 158.61 784.62 158.75 786.66 158.75 790.3 158.61 793.65 158.46 796.7 158.17 799.46 157.59 802.09 157.01 804.27 156.28 806.31 155.41 808.05 154.39 809.79 153.08 811.54 151.48 813.14 149.59 814.74 147.4 816.34 144.93 818.09 142.02 819.69 138.82 821.29 135.33 862.03 135.33 862.03 135.33"/><polygon class="cls-1" points="886.61 191.78 845.59 191.78 915.71 43.23 956.45 43.23 886.61 191.78 886.61 191.78"/><polygon class="cls-2" points="922.99 114.23 1006.94 43.67 1052.77 43.67 959.36 125 981.18 192.36 940.74 192.36 921.68 128.64 919.64 121.65 922.99 114.23 922.99 114.23"/><path class="cls-2" d="M1040.25,171.7h-.73l-2.18,.15-1.89,.15v14.69h2.33v-6.4h1.75l.58,.15h.15v-1.89h-2.47v-4.95l.87-.15h1.6v-1.75h0Zm0,20.37h-1.31l-1.16-.14-1.31-.29-1.16-.44-1.17-.58-1.16-.73-1.02-.58-.87-.87-.88-1.02-.73-1.02-.58-1.02-.58-1.16-.44-1.16-.44-1.46-.15-1.16v-2.76l.15-1.31,.44-1.31,.44-1.16,.58-1.16,.58-1.02,.73-1.02,.88-1.02,.87-.73,1.02-.87,1.16-.73,1.17-.44,1.16-.44,1.31-.44h1.16l1.31-.15v2.04h-1.02l-1.02,.15-1.02,.29-.87,.44-1.02,.44-.87,.58-.73,.73-.87,.58-.58,.87-.73,.87-.43,.87-.44,1.02-.29,1.02-.29,1.02-.14,1.02-.15,1.16,.15,1.16,.14,1.16,.29,1.02,.29,1.02,.44,1.02,.43,.87,.73,.87,.58,.73,.87,.73,.73,.73,.87,.58,1.02,.44,1.02,.44,.87,.15,1.02,.15,1.02,.15v1.89h0Zm0-11.64l.44,.15h.44l.58,.44,.29,.29,.29,.44,.29,.58,.15,.58,.43,2.47,.15,.73,.29,.58h2.47l-.15-.44-.29-.73-.29-1.02-.29-1.45-.14-.73-.15-.73-.29-.58-.14-.44-.29-.58-.44-.15-.44-.29h-.43v-.29l.58-.15,.43-.29,.58-.29,.43-.44,.29-.44,.29-.58,.15-.58v-.73l-.15-1.02-.14-.73-.44-.73-.58-.44-.73-.44-1.02-.44-1.31-.29h-.87v1.75h.15l.73,.29,.73,.14,.44,.29,.44,.44,.14,.44,.29,.58v.44l-.14,.58-.15,.58-.29,.44-.44,.29-.58,.29-.58,.15-.73,.15h0v1.89h0Zm.15-14.55l1.31,.15h1.31l1.16,.44,1.16,.44,1.17,.44,1.02,.73,1.02,.87,.88,.73,.88,1.02,.73,1.02,.73,1.02,.44,1.16,.58,1.16,.29,1.31,.15,1.31,.14,1.31-.14,1.46-.15,1.16-.29,1.46-.58,1.16-.44,1.16-.73,1.02-.73,1.02-.88,1.02-.88,.87-1.02,.58-1.02,.73-1.17,.58-1.16,.44-1.16,.29-1.31,.14h-1.46v-1.89h.15l1.02-.15,1.16-.15,1.02-.15,.87-.44,.87-.44,.88-.58,.73-.58,.87-.87,.73-.73,.58-.73,.44-1.02,.44-.87,.29-1.02,.43-1.16v-4.51l-.43-1.02-.29-1.02-.44-1.02-.44-.87-.58-.87-.73-.87-.87-.58-.73-.73-.88-.58-.87-.44-.87-.44-1.02-.29-1.16-.15h-1.16v-2.04h.15Z"/></svg>