<?xml version="1.0" encoding="UTF-8"?><svg id="Capa_1" xmlns="http://www.w3.org/2000/svg" viewBox="0 0 951.11 400.46"><defs><style>.cls-1{fill:none;stroke:#231f20;stroke-miterlimit:10;stroke-width:2.49px;}.cls-2{fill:#72103d;}.cls-3{fill:#a9233e;}.cls-4{fill:#231f20;}</style></defs><g><path class="cls-4" d="M24.83,319.06h27.44c6.4,0,11.4,1.7,15.02,5.11,3.62,3.41,5.43,8.07,5.43,13.99s-1.81,10.67-5.43,14.08c-3.62,3.41-8.62,5.11-15.02,5.11h-15.78v25.02h-11.66v-63.3Zm11.66,27.62h14.7c3.05,0,5.44-.75,7.17-2.24,1.73-1.49,2.6-3.59,2.6-6.28s-.85-4.77-2.56-6.23-4.11-2.2-7.22-2.2h-14.7v16.95Z"/><path class="cls-4" d="M167.22,382.37h-12.46l-5.65-15.33h-22.96l-5.65,15.33h-11.93l23.4-63.3h12.11l23.13,63.3Zm-29.59-46.63l-7.53,20.71h15.15l-6.9-18.65c-.12-.48-.18-.78-.18-.9v-.72c0-.3-.15-.45-.45-.45h-.09Z"/><path class="cls-4" d="M260.27,377.08l8.7,12.91c.18,.24,.22,.48,.13,.72s-.28,.36-.58,.36h-7.62c-2.21,0-3.86-.81-4.93-2.42l-4.48-6.81c-3.41,1.01-6.87,1.53-10.4,1.53-9.33,0-16.71-2.99-22.15-8.97-5.38-6.04-8.07-13.93-8.07-23.67s2.69-17.75,8.07-23.67c5.44-5.98,12.82-8.97,22.15-8.97s16.68,2.99,22.06,8.97c5.44,5.86,8.16,13.75,8.16,23.67,0,11.78-3.68,20.57-11.03,26.36Zm-19.19-4.39c1.73,0,3.11-.12,4.13-.36l-3.05-4.48c-.18-.24-.22-.48-.13-.72,.09-.24,.31-.36,.67-.36h10.67l.63,.9c3.77-3.82,5.65-9.47,5.65-16.95,0-6.75-1.63-12.11-4.89-16.05-3.26-3.95-7.82-5.92-13.67-5.92s-10.49,2.03-13.72,6.1c-3.23,4.07-4.84,9.36-4.84,15.87,0,5.02,1.17,9.74,3.5,14.17,1.31,2.39,3.29,4.29,5.92,5.69,2.63,1.41,5.68,2.11,9.15,2.11Z"/><path class="cls-4" d="M342.78,383.44c-16.68,0-25.02-8.73-25.02-26.18v-38.2h11.57l.09,38.2c0,10.34,4.45,15.51,13.36,15.51s13.36-5.17,13.36-15.51v-38.2h11.66v38.2c0,17.45-8.34,26.18-25.02,26.18Z"/><path class="cls-4" d="M460.26,319.06v10.67h-31.11v14.71h30.04v10.76h-30.04v16.5h31.11v10.67h-42.77v-63.3h42.77Z"/><path class="cls-4" d="M509.45,319.06h47.79v10.67h-18.11v52.63h-11.57v-52.63h-18.11v-10.67Z"/><path class="cls-4" d="M649.76,319.06v10.67h-31.11v14.71h30.04v10.76h-30.04v16.5h31.11v10.67h-42.77v-63.3h42.77Z"/><path class="cls-4" d="M737.16,355.65l19.01,26.72h-11.21c-2.33,0-4.16-1.02-5.47-3.05l-15.51-23.4h-9.32v26.45h-11.66v-63.3h30.13c6.39,0,11.39,1.63,14.97,4.89,3.59,3.26,5.38,7.76,5.38,13.49,0,5.08-1.44,9.22-4.3,12.42-2.87,3.2-6.87,5.12-12.02,5.78Zm-5.11-25.91h-17.39v15.42h17.39c3.05,0,5.44-.67,7.17-2.02,1.73-1.35,2.6-3.24,2.6-5.69s-.87-4.27-2.6-5.65c-1.73-1.37-4.12-2.06-7.17-2.06Z"/><path class="cls-4" d="M803.98,313.77h-2.87l5.83-8.16c1.44-2.03,3.8-3.05,7.08-3.05h4.93c.42,0,.7,.18,.85,.54,.15,.36,.07,.63-.22,.81l-5.56,5.74c-2.81,2.75-6.16,4.13-10.04,4.13Zm8.97,68.59h-11.57v-63.3h11.57v63.3Z"/><path class="cls-4" d="M915,382.37h-12.46l-5.65-15.33h-22.96l-5.65,15.33h-11.93l23.4-63.3h12.11l23.13,63.3Zm-29.59-46.63l-7.53,20.71h15.15l-6.9-18.65c-.12-.48-.18-.78-.18-.9v-.72c0-.3-.15-.45-.45-.45h-.09Z"/></g><g><path class="cls-4" d="M57.78,209.88s14.86,16.08,31.24,11.93c4.53-1.15,12.42-1.9,13.35-7.79,.93-5.89-5.22-6.41-9.41-7.27l-9.25-1.73c-18.01-3.29-24.22-18.17-18.62-34.37,10.26-29.65,55.2-48.24,83.6-48.24,14.89,0,22.99,4.63,34.57,12.43l-27.98,32.42c-7.26-5.54-15.65-10.98-25.87-10.98-4.16,0-14.26,2.92-15.11,8.28-.77,4.85-1.2,7.25,18.52,8.77,9.5,.73,27.04,14.12,20.22,32.53-11.14,30.05-41.94,51.27-70.17,51.27-16.45,0-41.28-4.47-54.82-11.92l29.73-35.33Z"/><path class="cls-4" d="M198.37,125.58h86.98l-15.84,34.58h-39.72l-5.6,14.15,36.06-.24-14.62,32.5h-38.01l-4.87,12.81h41.18l-17.71,35.67h-87.55l59.7-129.47Z"/><path class="cls-4" d="M302.17,124.49h45.54l9.53,72.97c5.47-18.68,30.48-72.97,30.48-72.97h45.37l-57.08,130.56h-48.49l-10.48-68.32-29.73,68.32h-46.05l60.91-130.56Z"/><path class="cls-4" d="M447.87,124.49h48.31c43.81,0,69.13,14.98,49.15,65.11-14.54,36.48-57.67,65.46-95.94,65.46h-60.09l58.56-130.56Zm7.8,91.24s32.88,2.7,41.67-24c9.02-27.41-18.53-25.95-18.53-25.95l-23.14,49.95Z"/></g><g><path class="cls-3" d="M760.89,172.44l80.24-93.24h-229.36l-104.28,194.92h164.39l76.02-86.42-30.54-61.73h20.47l23.07,46.46Zm-65.62,23.07h-113.71c-2.6,16.89,5.52,41.91,39.31,40.93,37.03-1.07,47.76-27.29,47.76-27.29l19.49,.65s-21.44,45.81-70.82,45.81c-52.3,0-54.55-48.41-54.41-57.5,.14-9.1,11.85-72.77,77.8-74.94,72.45,1.43,54.58,72.34,54.58,72.34Z"/><path class="cls-3" d="M638.09,139.63c-41.58,1.3-54.58,40.28-54.58,40.28h96.49s-.59-37.81-41.91-40.28Z"/></g><polygon class="cls-2" points="689.74 275.89 706.31 275.89 766.09 212.54 788.5 257.37 839.18 257.37 796.62 171.93 940.33 3.37 689.74 275.89"/><line class="cls-1" x1="25.7" y1="289.23" x2="915.87" y2="289.23"/></svg>