<?xml version="1.0" encoding="UTF-8"?><svg id="Capa_1" xmlns="http://www.w3.org/2000/svg" viewBox="0 0 350.61 406.87"><defs><style>.cls-1{fill:#ffb406;}.cls-2{fill:#341b14;}</style></defs><path class="cls-2" d="M176.36,382.09c3.14-1.57,84.8-36.9,110.71-58.1,26.7-21.98,40.83-53.39,40.83-91.08V56.24l-2.36-.79C260.38,20.12,179.5,22.47,175.58,22.47c-3.14,0-84.01-2.36-149.18,32.98l-1.57,.79V233.69c0,37.69,14.13,69.1,40.83,91.08,25.91,21.2,107.57,56.53,110.71,57.32"/><path class="cls-1" d="M176.36,386.01s-86.37-37.69-113.07-58.89c-28.27-23.56-41.61-55.75-41.61-92.65V50.74C89.99,13.84,176.36,16.98,176.36,16.98c0,0,86.37-3.14,154.68,33.76V233.69c0,36.9-13.35,69.1-41.61,92.65-26.7,21.98-113.07,59.67-113.07,59.67M34.25,234.47c0,34.55,12.56,62.81,36.9,82.44,21.98,18.06,87.15,47.11,105.21,54.96,18.06-7.85,84.01-37.69,105.21-54.96,24.34-19.63,36.9-48.68,36.9-82.44V53.88c-91.08-8.64-199.43-3.93-284.23,74.59v106h0Z"/><path class="cls-1" d="M263.52,208.56c11.78,7.07,16.49,11.78,17.27,20.41,0,9.42-6.28,14.92-16.49,14.92-8.64,0-18.84-4.71-25.91-10.99v25.13c8.64,4.71,18.84,8.64,29.84,8.64,26.7,0,39.26-18.84,39.26-36.12,.79-15.7-3.93-28.27-26.7-41.61-10.21-6.28-18.06-10.21-18.06-19.63s8.64-13.35,15.7-13.35c9.42,0,18.84,5.5,24.34,10.99v-23.56c-4.71-3.93-14.92-9.42-29.84-8.64-18.06,.79-36.9,13.35-36.9,35.33,.79,14.92,5.5,25.91,27.48,38.47m-92.65,56.53c2.36,.79,6.28,1.57,12.56,1.57,30.62,0,47.9-27.48,47.9-66.74s-18.06-64.38-50.25-64.38c-14.92,0-26.7,3.14-36.9,9.42v177.45h26.7v-57.32h0Zm0-106.78c2.36-.79,6.28-2.36,9.42-2.36,15.7,0,21.98,12.56,21.98,43.18s-7.85,43.97-23.56,43.97c-3.93,0-7.07-.79-8.64-1.57v-83.23h.79Zm-82.44,108.35c16.49,0,30.62-3.93,40.83-10.99v-118.56h-27.48v102.86c-3.14,2.36-7.07,3.14-12.56,3.14-12.56,0-14.13-11.78-14.13-18.84v-87.15h-27.48v85.58c0,29.05,14.13,43.97,40.83,43.97m182.95,106v18.06h3.14v-7.07h.79l4.71,7.07h3.93s-4.71-7.07-5.5-7.85c2.36-.79,3.93-2.36,3.93-4.71s-1.57-5.5-6.28-5.5h-4.71Zm4.71,2.36c2.36,0,3.14,1.57,3.14,2.36,0,1.57-.79,3.14-3.93,3.14h-.79v-5.5h1.57Z"/><path class="cls-1" d="M288.64,381.3c0,6.28-5.5,11.78-11.78,11.78s-11.78-5.5-11.78-11.78,5.5-11.78,11.78-11.78c7.07,0,11.78,5.5,11.78,11.78m-11.78-14.92c-7.85,0-14.92,6.28-14.92,14.92,0,7.85,6.28,14.92,14.92,14.92,7.85,0,14.92-6.28,14.92-14.92,0-7.85-7.07-14.92-14.92-14.92"/></svg>