<?xml version="1.0" encoding="UTF-8"?><svg id="Capa_1" xmlns="http://www.w3.org/2000/svg" viewBox="0 0 50 50"><defs><style>.cls-1{fill:#64748b;}</style></defs><path class="cls-1" d="M25,24.22c-3.27,0-5.95-1.04-8.03-3.12s-3.12-4.76-3.12-8.03,1.04-5.95,3.12-8.03c2.08-2.08,4.76-3.12,8.03-3.12s5.95,1.04,8.03,3.12c2.08,2.08,3.12,4.76,3.12,8.03s-1.04,5.95-3.12,8.03-4.76,3.12-8.03,3.12ZM1.21,48.09v-6.99c0-1.88,.47-3.49,1.41-4.83,.94-1.34,2.16-2.35,3.64-3.05,3.32-1.49,6.51-2.6,9.55-3.35,3.05-.74,6.11-1.12,9.18-1.12s6.12,.38,9.15,1.15c3.02,.77,6.2,1.87,9.52,3.31,1.54,.69,2.78,1.71,3.72,3.05,.94,1.34,1.41,2.95,1.41,4.83v6.99H1.21Z"/></svg>