<?xml version="1.0" encoding="UTF-8"?><svg id="Capa_1" xmlns="http://www.w3.org/2000/svg" viewBox="0 0 50 50"><defs><style>.cls-1{fill:#64748b;}</style></defs><g><path class="cls-1" d="M40.62,31.46c.02-.08,.04-.16,.05-.24-8.2,1.7-21.82-.02-31.29-4.36,.16,1.85,.49,3.64,.99,5.25,13.35,1.99,23.91,.71,30.25-.65Z"/><path class="cls-1" d="M38.03,20.41c-7.64,1.69-19.23,1.12-28.31-1.72-.32,1.84-.47,3.84-.45,5.83,12.88,.27,22.67-2.05,28.76-4.11Z"/><path class="cls-1" d="M12.67,11.49c-.91,.97-1.65,2.42-2.2,4.14,11.35-.27,20.1-2.45,25.89-4.49-6.02-3.64-19.11-4.55-23.69,.35Z"/><path class="cls-1" d="M11.05,33.93c1.07,2.4,2.62,4.15,4.73,4.65,1.41,.34,18.4,1.35,21.92-.82,.78-.48,1.52-1.75,2.13-3.48-7.61,2.11-19.43,2.1-28.78-.36Z"/><path class="cls-1" d="M13.62,17.55c12.05,1.81,21.58,.82,27.03-.18-.44-1.65-1.09-3.11-1.98-4.24-6.11,2.92-16,4.73-25.05,4.42Z"/><path class="cls-1" d="M14.5,26.6c11.43,2.78,20.87,2.7,26.58,2.2,.31-2.28,.42-4.74,.25-7.09-5.72,3.39-16.78,5.4-26.83,4.9Z"/><path class="cls-1" d="M10,17.31c1.18,.12,2.39,.2,3.62,.24-1.16-.17-2.33-.37-3.53-.6-.03,.12-.06,.24-.08,.36Z"/><path class="cls-1" d="M38.03,20.41c1.11-.25,2.14-.54,3.07-.88-.01-.08-.02-.16-.03-.24-.88,.35-1.89,.73-3.03,1.12Z"/><path class="cls-1" d="M9.33,26.09c1.67,.25,3.41,.42,5.18,.51-1.7-.41-3.44-.89-5.22-1.44,.01,.31,.03,.62,.05,.93Z"/></g><g><rect class="cls-1" x="2.76" y="6.86" width="44.48" height="6.95"/><rect class="cls-1" x="2.76" y="35.18" width="44.48" height="6.95"/></g></svg>