<?xml version="1.0" encoding="UTF-8"?><svg id="Capa_1" xmlns="http://www.w3.org/2000/svg" viewBox="0 0 50 50"><defs><style>.cls-1{fill:#64748b;}</style></defs><path class="cls-1" d="M3.62,45.08V15.85c-.55-.08-1.09-.48-1.6-1.19s-.77-1.49-.77-2.32V4.8c0-.91,.36-1.73,1.07-2.47s1.54-1.1,2.49-1.1H45.2c.91,0,1.73,.37,2.47,1.1s1.1,1.55,1.1,2.47v7.54c0,.83-.26,1.6-.77,2.32s-1.05,1.11-1.6,1.19v29.23c0,.91-.37,1.75-1.1,2.52s-1.55,1.16-2.47,1.16H7.18c-.95,0-1.78-.39-2.49-1.16s-1.07-1.61-1.07-2.52ZM45.2,12.35V4.8H4.8v7.54H45.2ZM17.87,28.39h14.26v-3.56h-14.26v3.56Z"/></svg>