<?xml version="1.0" encoding="UTF-8"?><svg id="Capa_1" xmlns="http://www.w3.org/2000/svg" viewBox="0 0 50 50"><defs><style>.cls-1{fill:#64748b;}</style></defs><path class="cls-1" d="M19.02,48.91c-.96,0-1.79-.36-2.51-1.08-.72-.72-1.08-1.55-1.08-2.51V19.02c0-.96,.36-1.79,1.08-2.51,.72-.72,1.55-1.08,2.51-1.08h26.3c.96,0,1.79,.36,2.51,1.08,.72,.72,1.08,1.55,1.08,2.51v26.3c0,.96-.36,1.79-1.08,2.51-.72,.72-1.55,1.08-2.51,1.08H19.02Zm-10.76-6.34V11.85c0-.96,.36-1.79,1.08-2.51,.72-.72,1.55-1.08,2.51-1.08h30.73v3.59H11.85v30.73h-3.59Zm-7.17-7.17V4.67c0-.96,.36-1.79,1.08-2.51,.72-.72,1.55-1.08,2.51-1.08h30.73v3.59H4.67v30.73H1.09Z"/></svg>