<svg xmlns="http://www.w3.org/2000/svg" width="25.331" height="20.265" viewBox="0 0 25.331 20.265">
  <g id="flete_icon" transform="translate(-34.988 -0.524)">
    <g id="Grupo_10863" data-name="Grupo 10863" transform="translate(34.988 0.524)">
      <path id="truck-fast-solid" d="M4.433,0a1.9,1.9,0,0,0-1.9,1.9V3.8H.633a.633.633,0,0,0,0,1.267H10.766a.633.633,0,0,1,0,1.267H1.9A.633.633,0,1,0,1.9,7.6H9.5a.633.633,0,1,1,0,1.267H.633a.633.633,0,0,0,0,1.267h7.6a.633.633,0,0,1,0,1.267h-5.7v5.066a3.8,3.8,0,1,0,7.6,0H15.2a3.8,3.8,0,1,0,7.6,0h1.267a1.267,1.267,0,0,0,0-2.533V9.392a2.534,2.534,0,0,0-.74-1.793l-3.06-3.06a2.534,2.534,0,0,0-1.793-.74H16.465V1.9a1.9,1.9,0,0,0-1.9-1.9Zm17.1,9.392v.74H16.465v-3.8h2.007Zm-15.2,5.173a1.9,1.9,0,1,1-1.9,1.9A1.9,1.9,0,0,1,6.333,14.566Zm10.766,1.9a1.9,1.9,0,1,1,1.9,1.9A1.9,1.9,0,0,1,17.1,16.465Z" fill="#64748b"/>
    </g>
  </g>
</svg>
