<?xml version="1.0" encoding="UTF-8"?><svg id="Capa_1" xmlns="http://www.w3.org/2000/svg" viewBox="0 0 50 50"><defs><style>.cls-1{fill:#64748b;}.cls-2{fill:none;stroke:#64748b;stroke-miterlimit:10;stroke-width:1.14px;}</style></defs><path class="cls-1" d="M46.22,27.12h-8.49c-.6,0-1.11,.2-1.51,.61s-.61,.91-.61,1.51v8.49c0,.6,.2,1.11,.61,1.51s.91,.61,1.51,.61h8.49c.6,0,1.11-.2,1.51-.61s.61-.91,.61-1.51v-8.49c0-.6-.2-1.11-.61-1.51s-.91-.61-1.51-.61Z"/><path class="cls-1" d="M28.18,10.15H4.84c-.88,0-1.64,.31-2.25,.93s-.93,1.37-.93,2.25v23.34c0,.88,.31,1.64,.93,2.25,.62,.62,1.37,.93,2.25,.93H28.18c.88,0,1.64-.31,2.25-.93s.93-1.37,.93-2.25V13.33c0-.88-.31-1.64-.93-2.25-.62-.62-1.37-.93-2.25-.93Z"/><path class="cls-2" d="M47.73,10.76c-.41-.41-.91-.61-1.51-.61h-8.49c-.6,0-1.11,.2-1.51,.61s-.61,.91-.61,1.51v8.49c0,.6,.2,1.11,.61,1.51,.41,.41,.91,.61,1.51,.61h8.49c.6,0,1.11-.2,1.51-.61,.41-.41,.61-.91,.61-1.51V12.27c0-.6-.2-1.1-.61-1.51Z"/></svg>