<?xml version="1.0" encoding="UTF-8"?><svg id="Capa_1" xmlns="http://www.w3.org/2000/svg" viewBox="0 0 50 50"><defs><style>.cls-1{fill:#64748b;}</style></defs><path class="cls-1" d="M1,37v-2.65c0-1.3,.7-2.35,2.1-3.15,1.4-.8,3.2-1.2,5.4-1.2,.43,0,.83,0,1.2,.02s.73,.06,1.1,.12c-.27,.57-.47,1.14-.6,1.73s-.2,1.21-.2,1.88v3.25H1Zm12,0v-3.25c0-2.17,1.11-3.92,3.32-5.25s5.11-2,8.68-2,6.5,.67,8.7,2c2.2,1.33,3.3,3.08,3.3,5.25v3.25H13Zm27,0v-3.25c0-.67-.06-1.29-.17-1.88-.12-.58-.31-1.16-.58-1.73,.37-.07,.73-.11,1.1-.12,.37-.02,.75-.02,1.15-.02,2.27,0,4.08,.4,5.45,1.2,1.37,.8,2.05,1.85,2.05,3.15v2.65h-9ZM8.5,28.5c-.97,0-1.79-.34-2.47-1.02-.68-.68-1.03-1.51-1.03-2.48s.34-1.79,1.03-2.48c.68-.68,1.51-1.02,2.47-1.02s1.79,.34,2.48,1.02c.68,.68,1.02,1.51,1.02,2.48s-.34,1.79-1.02,2.48c-.68,.68-1.51,1.02-2.48,1.02Zm33,0c-.97,0-1.79-.34-2.47-1.02-.68-.68-1.03-1.51-1.03-2.48s.34-1.79,1.03-2.48c.68-.68,1.51-1.02,2.47-1.02s1.79,.34,2.47,1.02c.68,.68,1.03,1.51,1.03,2.48s-.34,1.79-1.03,2.48c-.68,.68-1.51,1.02-2.47,1.02Zm-16.5-3.5c-1.67,0-3.08-.58-4.25-1.75s-1.75-2.58-1.75-4.25,.58-3.12,1.75-4.27c1.17-1.15,2.58-1.73,4.25-1.73s3.12,.57,4.27,1.73c1.15,1.15,1.73,2.58,1.73,4.27s-.57,3.08-1.73,4.25c-1.15,1.17-2.58,1.75-4.27,1.75Z"/></svg>