<?xml version="1.0" encoding="UTF-8"?><svg id="Capa_1" xmlns="http://www.w3.org/2000/svg" viewBox="0 0 100 100"><defs><style>.cls-1{fill:#fff;}.cls-2{fill:#006eb2;}</style></defs><ellipse id="Elipse_1352" class="cls-2" cx="50" cy="50" rx="48.56" ry="46"/><g id="Grupo_10865"><path id="receipt-solid" class="cls-1" d="M25.71,18.95c1.01-.46,2.19-.3,3.03,.43l4.79,4.1,4.79-4.1c1.06-.91,2.64-.91,3.7,0l4.79,4.1,4.79-4.1c1.06-.91,2.64-.91,3.7,0l4.78,4.1,4.8-4.1c1.19-1.02,2.99-.89,4.01,.31,.44,.52,.69,1.17,.69,1.85v55.01c0,1.57-1.27,2.84-2.84,2.84-.68,0-1.34-.24-1.85-.69l-4.8-4.1-4.79,4.1c-1.06,.91-2.64,.91-3.7,0l-4.79-4.1-4.79,4.1c-1.06,.91-2.64,.91-3.7,0l-4.78-4.1-4.79,4.1c-1.19,1.02-2.99,.89-4.01-.31-.44-.52-.69-1.17-.69-1.85V21.54c0-1.11,.65-2.12,1.66-2.58Zm9.72,16.81c-1.05,0-1.9,.85-1.9,1.9s.85,1.9,1.9,1.9h22.76c1.05,0,1.9-.85,1.9-1.9s-.85-1.9-1.9-1.9h-22.76Zm-1.9,24.66c0,1.05,.85,1.89,1.9,1.9h22.76c1.05,0,1.9-.85,1.9-1.9s-.85-1.9-1.9-1.9h-22.76c-1.05,0-1.89,.85-1.9,1.9h0Zm1.9-13.28c-1.05,0-1.9,.85-1.9,1.9s.85,1.9,1.9,1.9h22.76c1.05,0,1.9-.85,1.9-1.9s-.85-1.9-1.9-1.9h-22.76Z"/><g id="Grupo_10864"><ellipse id="Elipse_1358" class="cls-2" cx="69.33" cy="67.89" rx="21.72" ry="20.44"/><path id="magnifying-glass-solid" class="cls-1" d="M81.74,66.7c0,2.98-.94,5.89-2.7,8.3l3.61,2.84c.83,.75,.16,1.11-.83,2.04-.54,.51-1.11,.99-1.71,1.43l-4.13-3.24c-6.27,4.58-15.07,3.21-19.66-3.06s-3.21-15.07,3.06-19.66c6.27-4.58,15.07-3.21,19.66,3.06,1.76,2.41,2.71,5.31,2.71,8.3h0Zm-14.06,9.73c5.38,0,9.74-4.36,9.74-9.74s-4.36-9.74-9.74-9.74-9.74,4.36-9.74,9.74h0c0,5.38,4.36,9.74,9.74,9.74Z"/></g></g></svg>