<?xml version="1.0" encoding="UTF-8"?><svg id="Capa_1" xmlns="http://www.w3.org/2000/svg" viewBox="0 0 100 100"><defs><style>.cls-1{fill:#fff;}.cls-2{fill:#006eb2;}</style></defs><g id="Grupo_10866"><ellipse id="Elipse_1355" class="cls-2" cx="50" cy="50" rx="48.56" ry="46"/><path id="dolly-solid" class="cls-1" d="M20.25,31.3c0-1.84,1.49-3.34,3.33-3.34,0,0,0,0,0,0h7.62c2.88,0,5.43,1.84,6.34,4.58l9.62,28.85c3.03,.05,5.87,1.47,7.73,3.87l21.11-7.04c1.75-.59,3.64,.36,4.23,2.11,.59,1.75-.36,3.64-2.11,4.23h0l-21.11,7.04c-.1,5.54-4.67,9.94-10.21,9.84-5.54-.1-9.94-4.67-9.84-10.21,.06-3.03,1.48-5.87,3.86-7.73l-9.62-28.85h-7.62c-1.84,0-3.34-1.49-3.34-3.33,0,0,0,0,0,0Zm25.57,10.71c-.58-1.75,.37-3.63,2.12-4.21,0,0,.01,0,.02,0l4.77-1.55,2.07,6.36,6.36-2.07-2.07-6.36,4.77-1.55c1.75-.57,3.63,.38,4.21,2.13,0,0,0,0,0,.01l5.16,15.9c.57,1.75-.38,3.63-2.13,4.21,0,0,0,0-.01,0l-15.91,5.16c-1.75,.57-3.63-.38-4.21-2.13,0,0,0,0,0-.01l-5.16-15.89Z"/></g></svg>