<?xml version="1.0" encoding="UTF-8"?><svg id="Capa_1" xmlns="http://www.w3.org/2000/svg" viewBox="0 0 100 100"><defs><style>.cls-1{fill:#fff;}.cls-2{fill:#006eb2;}</style></defs><g id="Grupo_10863"><ellipse id="Elipse_1357" class="cls-2" cx="50" cy="50" rx="48.56" ry="46"/><path id="truck-fast-solid" class="cls-1" d="M31.37,27.94c-2.34,0-4.24,1.9-4.24,4.24v4.24h-4.24c-.78,0-1.41,.63-1.41,1.42,0,.78,.63,1.41,1.41,1.41h22.63c.78,0,1.41,.63,1.41,1.42,0,.78-.63,1.41-1.41,1.41H25.71c-.78,0-1.41,.63-1.42,1.41,0,.78,.63,1.41,1.41,1.42h16.98c.78,0,1.41,.63,1.42,1.41,0,.78-.63,1.41-1.41,1.42H22.88c-.78,0-1.41,.63-1.41,1.41s.63,1.41,1.41,1.41h16.98c.78,0,1.41,.63,1.41,1.41s-.63,1.41-1.41,1.41h-12.73v11.32c0,4.69,3.8,8.49,8.49,8.49s8.49-3.8,8.49-8.49h11.32c0,4.69,3.8,8.49,8.49,8.49s8.49-3.8,8.49-8.49h2.83c1.56,0,2.83-1.27,2.83-2.83,0-1.56-1.27-2.83-2.83-2.83v-10.14c0-1.5-.59-2.94-1.65-4l-6.83-6.83c-1.06-1.06-2.5-1.66-4-1.65h-4.48v-4.24c0-2.34-1.9-4.24-4.24-4.24H31.37Zm38.19,20.98v1.65h-11.32v-8.49h4.48l6.83,6.83Zm-33.95,11.55c2.34,0,4.24,1.9,4.24,4.24s-1.9,4.24-4.24,4.24-4.24-1.9-4.24-4.24,1.9-4.24,4.24-4.24h0Zm24.05,4.24c0-2.34,1.89-4.25,4.24-4.25,2.34,0,4.25,1.89,4.25,4.24,0,2.34-1.89,4.25-4.24,4.25,0,0,0,0,0,0-2.34,0-4.24-1.9-4.24-4.24Z"/></g></svg>