<?xml version="1.0" encoding="UTF-8"?><svg id="Capa_1" xmlns="http://www.w3.org/2000/svg" viewBox="0 0 100 100"><defs><style>.cls-1{fill:#fff;}.cls-2{fill:#ccc;}</style></defs><g id="Grupo_10857"><ellipse id="Elipse_1354" class="cls-2" cx="50" cy="50" rx="48.56" ry="46"/></g><path id="box-solid" class="cls-1" d="M34.18,31.97l-4.63,9.26h18.98v-11.68h-10.43c-1.66,0-3.18,.94-3.93,2.42Zm17.28,9.26h18.99l-4.63-9.26c-.75-1.48-2.27-2.42-3.93-2.42h-10.43v11.68Zm18.98,2.92H29.56v20.44c0,3.22,2.62,5.84,5.84,5.84h29.21c3.22,0,5.84-2.62,5.84-5.84v-20.44Z"/><g id="Grupo_10859"><circle id="Elipse_1354-2" class="cls-1" cx="67.25" cy="67.25" r="13.42"/></g><path id="circle-check-solid" class="cls-2" d="M66.98,77.88c6.02,0,10.9-4.88,10.9-10.9s-4.88-10.9-10.9-10.9-10.9,4.88-10.9,10.9c0,0,0,0,0,0,0,6.02,4.88,10.9,10.9,10.9Zm4.82-12.9l-5.45,5.45c-.4,.4-1.04,.4-1.44,0l-2.73-2.72c-.4-.4-.4-1.05,0-1.45s1.05-.4,1.45,0l2,2,4.73-4.73c.42-.38,1.06-.35,1.44,.07,.35,.39,.35,.98,0,1.37h0Z"/></svg>