<?xml version="1.0" encoding="UTF-8"?><svg id="Capa_1" xmlns="http://www.w3.org/2000/svg" viewBox="0 0 100 100"><defs><style>.cls-1{fill:#fff;}.cls-2{fill:#006eb2;}</style></defs><g id="Grupo_10862"><ellipse id="Elipse_1356" class="cls-2" cx="50" cy="50" rx="48.56" ry="46"/><path id="box-open-solid" class="cls-1" d="M24.82,28.88c.29-.6,.94-.94,1.6-.85l23.99,3,23.99-3c.66-.08,1.3,.26,1.6,.85l4.09,8.18c.77,1.55,.15,3.44-1.41,4.21-.17,.09-.35,.16-.53,.21l-16.02,4.57c-1.36,.39-2.82-.19-3.55-1.41l-8.18-13.62-8.18,13.62c-.73,1.22-2.18,1.8-3.55,1.41l-16-4.58c-1.66-.47-2.63-2.21-2.15-3.87,.05-.19,.13-.37,.21-.55l4.08-8.17Zm25.7,8.42l5.38,8.96c1.46,2.44,4.38,3.59,7.11,2.8l12.5-3.57v16.37c0,2.16-1.47,4.04-3.57,4.57l-20,5c-1,.25-2.04,.25-3.04,0l-20-5c-2.09-.53-3.56-2.42-3.57-4.58v-16.37l12.51,3.58c2.73,.78,5.64-.37,7.11-2.8l5.37-8.96h.22Z"/></g></svg>