<?xml version="1.0" encoding="UTF-8"?><svg id="Capa_1" xmlns="http://www.w3.org/2000/svg" viewBox="0 0 50 50"><defs><style>.cls-1{fill:#64748b;}</style></defs><path class="cls-1" d="M36.62,45.39l-.61-4.05c-.7-.2-1.4-.5-2.12-.89-.72-.39-1.32-.83-1.81-1.32l-3.37,.74-1.53-2.58,2.88-2.7c-.08-.37-.12-.88-.12-1.53s.04-1.17,.12-1.53l-2.88-2.7,1.53-2.58,3.37,.74c.49-.49,1.09-.93,1.81-1.32s1.42-.68,2.12-.89l.61-4.05h3.31l.61,4.05c.7,.2,1.4,.5,2.12,.89,.72,.39,1.32,.83,1.81,1.32l3.37-.74,1.53,2.58-2.88,2.7c.08,.37,.12,.88,.12,1.53s-.04,1.17-.12,1.53l2.88,2.7-1.53,2.58-3.37-.74c-.49,.49-1.09,.93-1.81,1.32-.72,.39-1.42,.68-2.12,.89l-.61,4.05h-3.31ZM.62,42.69v-5.76c0-1.43,.36-2.72,1.07-3.86,.72-1.14,1.75-2.02,3.1-2.64,2.94-1.31,5.67-2.25,8.19-2.82,2.51-.57,4.94-.86,7.27-.86h1.41c-.86,2.09-1.25,4.83-1.17,8.25,.08,3.41,.78,5.98,2.09,7.7H.62Zm37.65-4.72c1.47,0,2.66-.45,3.56-1.35,.9-.9,1.35-2.09,1.35-3.56s-.45-2.66-1.35-3.56c-.9-.9-2.09-1.35-3.56-1.35s-2.66,.45-3.56,1.35c-.9,.9-1.35,2.09-1.35,3.56,0,1.47,.45,2.66,1.35,3.56,.9,.9,2.09,1.35,3.56,1.35Zm-18.03-14.96c-2.7,0-4.91-.86-6.62-2.58-1.72-1.72-2.58-3.92-2.58-6.62s.86-4.91,2.58-6.62c1.72-1.72,3.92-2.58,6.62-2.58s4.91,.86,6.62,2.58c1.72,1.72,2.58,3.92,2.58,6.62s-.86,4.91-2.58,6.62c-1.72,1.72-3.92,2.58-6.62,2.58Z"/></svg>