<?xml version="1.0" encoding="UTF-8"?><svg id="Capa_1" xmlns="http://www.w3.org/2000/svg" viewBox="0 0 50 50"><defs><style>.cls-1{fill:#64748b;stroke:#64748b;stroke-miterlimit:10;stroke-width:3px;}</style></defs><path class="cls-1" d="M9.55,40c-.7,0-1.3-.24-1.8-.72s-.75-1.06-.75-1.73c0-.7,.25-1.3,.75-1.8s1.1-.75,1.8-.75,1.24,.25,1.73,.75,.73,1.1,.73,1.8-.24,1.24-.73,1.72c-.48,.48-1.06,.73-1.73,.73Zm7.45-1v-3h26v3H17Zm-7.45-11.5c-.7,0-1.3-.24-1.8-.73s-.75-1.08-.75-1.77,.25-1.29,.75-1.77,1.1-.73,1.8-.73,1.24,.25,1.73,.75,.72,1.08,.72,1.75-.24,1.25-.73,1.75c-.48,.5-1.06,.75-1.72,.75Zm7.45-1v-3h26v3H17Zm-7.5-11.5c-.7,0-1.29-.24-1.78-.73-.48-.48-.72-1.07-.72-1.77s.24-1.29,.72-1.77c.48-.48,1.07-.73,1.78-.73s1.29,.24,1.77,.73c.48,.48,.73,1.07,.73,1.77s-.24,1.29-.73,1.77c-.48,.48-1.07,.73-1.77,.73Zm7.5-1v-3h26v3H17Z"/></svg>