<?xml version="1.0" encoding="UTF-8"?><svg id="Capa_1" xmlns="http://www.w3.org/2000/svg" viewBox="0 0 50 50"><defs><style>.cls-1{fill:#64748b;}.cls-2{fill:#fff;}</style></defs><path class="cls-1" d="M5.41,43.38l-1.36-.41c-1.26-.55-2.12-1.5-2.57-2.84-.45-1.34-.33-2.66,.38-3.96l3.55-8.04v15.25Zm10.99,4.61c-1.34,0-2.48-.47-3.43-1.42-.95-.95-1.42-2.09-1.42-3.43v-12.23l5.44,15.48c.08,.32,.2,.59,.35,.83,.16,.24,.35,.49,.59,.77h-1.54Zm11.11-1.42c-.83,.35-1.69,.28-2.6-.24-.91-.51-1.56-1.22-1.95-2.13L11.68,13.54c-.39-.91-.35-1.79,.12-2.66s1.2-1.5,2.19-1.89L32.77,2.19c.91-.32,1.79-.24,2.66,.24s1.5,1.18,1.89,2.13l11.29,30.32c.28,.98,.22,1.95-.18,2.9s-1.08,1.6-2.07,1.95l-18.85,6.86Z"/><path class="cls-2" d="M40.1,38.56l-5.03,1.9-5.25-13.89,5.03-1.9,5.25,13.89Zm4.09-7.56l-5.03,1.9-3.26-8.63,5.03-1.9,3.26,8.63Zm1.99,5.26l-5.03,1.9-1.59-4.22,5.03-1.9,1.59,4.22Z"/></svg>