<?xml version="1.0" encoding="UTF-8"?><svg id="Capa_1" xmlns="http://www.w3.org/2000/svg" viewBox="0 0 50 50"><defs><style>.cls-1{fill:#64748b;}.cls-2{fill:none;stroke:#f6f6f6;stroke-linecap:round;stroke-miterlimit:10;stroke-width:1.73px;}</style></defs><path class="cls-1" d="M45.07,31.87H7.55c-4.32,.41-4.82,4.95-4.82,3.78V7.31c0-1.17,1.3-4.27,4.82-4.95H45.07c1.21,0,2.2,.95,2.2,2.12V29.76c0,1.17-.98,2.12-2.2,2.12Z"/><g><rect class="cls-1" x="3.41" y="33.44" width="32.06" height="14.19" rx="6.16" ry="6.16"/><path class="cls-2" d="M32.86,40.77s-.37-3.95-5.25-3.85c-3.16,.06-14.94,.01-16.82,0s-3.61,1.04-3.62,3.45c0,1.41,.01,3.96,4.74,4.36,3.52,.29,11.66,.22,14.47,.23s3.27-1.07,2.83-2.67-4.38-1.57-8.41-1.52c-3.26,.04-6,.17-7.64,.17"/></g></svg>