<?xml version="1.0" encoding="UTF-8"?><svg id="Capa_1" xmlns="http://www.w3.org/2000/svg" viewBox="0 0 50 50"><defs><style>.cls-1{fill:#64748b;}.cls-2{fill:#fff;}</style></defs><path class="cls-1" d="M8.73,47.78c-.87,0-1.63-.33-2.28-.98-.65-.65-.98-1.41-.98-2.28V15.78c0-.87,.33-1.63,.98-2.28,.65-.65,1.41-.98,2.28-.98h5.97c0-2.86,.96-5.29,2.87-7.3,1.92-2.01,4.3-3.01,7.16-3.01s5.33,1,7.43,3.01c2.1,2.01,3.15,4.44,3.15,7.3h5.97c.87,0,1.63,.33,2.28,.98,.65,.65,.98,1.41,.98,2.28v28.75c0,.87-.33,1.63-.98,2.28-.65,.65-1.41,.98-2.28,.98H8.73ZM17.95,12.52h14.1c0-1.99-.68-3.66-2.03-5.02s-3.03-2.03-5.02-2.03-3.66,.68-5.02,2.03-2.03,3.03-2.03,5.02Z"/><path class="cls-2" d="M31.26,42.95h-6.88V23.97h6.88v18.97Zm8.3-7.19h-6.88v-11.79h6.88v11.79Zm0,7.19h-6.88v-5.76h6.88v5.76Z"/></svg>