<?xml version="1.0" encoding="UTF-8"?><svg id="Capa_1" xmlns="http://www.w3.org/2000/svg" viewBox="0 0 50 50"><defs><style>.cls-1{fill:#64748b;}.cls-2{fill:#fff;}</style></defs><path class="cls-1" d="M12.74,40.61c-.89,0-1.67-.33-2.34-1-.67-.67-1-1.45-1-2.34V6.05c0-.89,.33-1.67,1-2.34,.67-.67,1.45-1,2.34-1h31.21c.89,0,1.67,.33,2.34,1,.67,.67,1,1.45,1,2.34v31.21c0,.89-.33,1.67-1,2.34-.67,.67-1.45,1-2.34,1H12.74Zm-6.69,6.69c-.89,0-1.67-.33-2.34-1-.67-.67-1-1.45-1-2.34V9.39h3.34V43.95H40.61v3.34H6.05Z"/><path class="cls-2" d="M34.2,29.67h-11.24v-12.32l6.69-6.93,.79,.63c.18,.13,.29,.27,.35,.43,.06,.16,.08,.34,.08,.55v.24l-1.08,5.08h7.75c.37,0,.7,.15,1,.45,.3,.3,.45,.63,.45,1v1.97c0,.18-.02,.38-.06,.61s-.1,.44-.18,.61l-2.79,6.45c-.14,.34-.38,.63-.71,.87-.33,.24-.68,.36-1.05,.36Zm-12.68-12.32v12.32h-2.74v-12.32h2.74Z"/></svg>