<svg version="1.1" id="Layer_1" xmlns="http://www.w3.org/2000/svg" xmlns:xlink="http://www.w3.org/1999/xlink" x="0px" y="0px"
	 width="100%" viewBox="0 0 1024 624" enable-background="new 0 0 1024 624" xml:space="preserve">
<path fill="#000000" opacity="1.000000" stroke="none" 
	d="
M359.576599,379.540619 
	C368.480591,373.934937 377.014984,368.411774 385.733063,363.195526 
	C388.410767,361.593323 389.201752,359.895508 389.041016,356.796143 
	C388.008118,336.879669 390.063141,317.521088 400.591736,299.941467 
	C401.834747,297.865967 401.679962,296.434021 399.899536,294.733582 
	C389.914001,285.196289 387.402557,273.001648 388.471375,259.939819 
	C390.831940,231.090851 394.433380,202.405884 401.928162,174.359909 
	C402.626526,171.746704 401.245056,170.706894 399.695251,169.436508 
	C393.238678,164.144150 387.212494,158.421722 381.803558,152.038986 
	C371.361389,139.716736 365.891663,125.361450 365.951080,109.379959 
	C366.015930,91.931267 367.055176,74.469742 370.697723,57.302071 
	C371.179993,55.029057 371.939331,52.816242 372.505524,50.559296 
	C373.328125,47.280037 374.825836,44.472519 378.497162,44.030067 
	C381.890961,43.621071 384.034912,45.820992 385.742645,48.463257 
	C391.078522,56.719032 396.413300,64.975502 401.748932,73.231430 
	C408.426758,83.564156 415.105011,93.896614 422.047485,104.638252 
	C426.828796,101.974854 431.058014,98.903152 435.777710,97.157677 
	C442.859467,94.538635 448.233215,90.557755 452.896240,84.429581 
	C460.027588,75.057526 470.608978,71.134583 482.142426,70.180771 
	C497.565521,68.905296 512.503479,69.905151 524.986511,80.781799 
	C529.341736,84.576553 532.620422,89.154099 535.077698,94.298447 
	C536.126160,96.493393 537.350037,97.550377 539.888000,97.810036 
	C545.025513,98.335655 550.228149,99.278801 554.742249,101.829491 
	C558.630371,104.026443 560.520569,102.879936 562.680847,99.472618 
	C572.850525,83.432541 583.222168,67.520508 593.529846,51.568058 
	C594.524048,50.029434 595.453979,48.426689 596.620972,47.026432 
	C600.597046,42.255730 606.087402,43.207741 608.219177,49.061096 
	C610.968811,56.610867 612.359619,64.508278 613.046692,72.446136 
	C614.035889,83.874092 615.230469,95.295921 615.332581,106.796059 
	C615.509094,126.669273 608.617737,143.573868 594.405151,157.447617 
	C590.236389,161.516983 585.979614,165.514191 581.537476,169.278061 
	C579.298340,171.175308 578.732910,172.995483 579.580444,175.768356 
	C585.592285,195.436234 587.560242,215.839066 590.307739,236.092255 
	C591.446411,244.486176 592.757263,252.907639 593.070740,261.350708 
	C593.541199,274.018280 591.032104,285.933044 580.973999,294.951111 
	C579.507507,296.265991 579.209351,297.603149 580.279907,299.334015 
	C590.992493,316.653992 593.018250,335.863770 592.145325,355.593933 
	C591.954163,359.913940 593.502441,362.156219 597.078064,364.270172 
	C605.964233,369.523834 614.662170,375.109711 623.289246,380.784882 
	C644.880188,394.988098 661.331787,413.565399 673.624634,436.503815 
	C691.550171,469.952637 702.343567,505.475250 708.512756,542.676575 
	C709.365417,547.818298 707.478027,551.430481 704.189026,554.714844 
	C695.064148,563.826904 683.682373,569.415649 672.254150,574.905090 
	C638.660889,591.041199 602.728699,599.488464 566.581238,607.384033 
	C540.004944,613.188965 513.286499,617.746033 486.026184,617.169617 
	C462.017822,616.661987 438.449524,612.471436 414.958344,607.478760 
	C388.722595,601.902710 362.720642,595.541199 337.380280,586.810120 
	C320.683716,581.057312 304.537018,573.836060 289.435944,564.521301 
	C287.031891,563.038452 284.793579,561.289490 282.443970,559.715271 
	C274.217346,554.203552 271.615265,547.165344 273.459869,537.007751 
	C280.976044,495.619171 294.249847,456.522705 316.839508,420.812195 
	C327.681244,403.673126 342.878693,391.102936 359.576599,379.540619 
M420.687378,212.449829 
	C422.780304,209.056900 426.209412,207.798309 429.778870,206.779816 
	C434.335907,205.479538 439.018738,205.589005 443.677826,205.707672 
	C447.195740,205.797287 448.006195,204.417526 447.096619,201.097748 
	C444.905945,193.101898 438.497864,190.016098 431.631531,187.562698 
	C421.498505,183.942078 416.447327,186.306137 413.477203,196.646576 
	C410.126953,208.310501 407.460846,220.148178 407.131073,232.397842 
	C406.875580,241.887543 406.518494,251.383194 405.849976,260.850983 
	C404.935760,273.797272 407.384735,285.020233 419.789490,291.979462 
	C422.066803,293.257050 423.373413,295.535522 422.797913,298.330017 
	C422.289307,300.799835 420.748047,303.058685 418.253326,303.017609 
	C413.584412,302.940704 411.988800,306.090271 410.224213,309.330292 
	C401.094849,326.092987 401.648010,344.263153 402.616455,362.464447 
	C402.690430,363.855377 403.727142,365.221527 404.413269,366.549133 
	C409.501404,376.393982 416.190643,385.131134 423.541138,393.332611 
	C440.663269,412.437073 459.378906,429.556519 482.853271,440.812439 
	C488.266998,443.408295 492.869568,443.605011 498.330750,440.804993 
	C531.735046,423.678345 557.358032,398.416473 576.900024,366.657318 
	C578.151123,364.624084 578.454041,362.381256 578.813171,360.038818 
	C580.117249,351.534119 579.420715,343.062622 578.596924,334.622498 
	C577.633301,324.749359 574.828918,315.374969 569.620911,306.818512 
	C568.352295,304.734344 566.964355,303.177124 564.152283,303.220917 
	C561.368469,303.264252 559.392639,301.621429 558.793579,298.865662 
	C558.128479,295.805939 559.077026,293.215759 561.939209,291.645416 
	C571.800415,286.235168 575.792603,277.295959 575.523804,266.726593 
	C575.164307,252.593994 575.421814,238.390625 573.596680,224.342758 
	C572.291260,214.295013 570.537598,204.264664 567.171814,194.642654 
	C565.764832,190.620270 563.738159,186.688751 558.816162,186.382843 
	C550.163879,185.845093 542.749268,189.022537 536.943909,195.348694 
	C534.371155,198.152206 533.309326,201.883835 533.746948,205.722168 
	C538.203857,205.722168 542.342590,205.567474 546.465637,205.756500 
	C553.601013,206.083633 558.599365,209.830597 560.383972,215.897415 
	C562.334351,222.527756 558.437744,227.788773 551.541809,228.371536 
	C546.840027,228.768875 543.384033,226.794815 540.313660,223.229431 
	C538.899475,226.621613 539.344360,229.559723 539.773071,232.524887 
	C541.935974,247.483063 544.852173,262.349915 542.364685,277.634766 
	C537.867188,305.269775 512.128967,323.236572 486.985565,321.997131 
	C469.066803,321.113861 455.687134,311.118469 446.136902,296.503052 
	C436.350067,281.525574 436.846771,264.705658 439.121704,247.721954 
	C440.187775,239.763153 442.710052,231.865448 441.280029,223.410660 
	C435.374634,228.619186 428.730896,229.835342 423.901215,226.800140 
	C419.549713,224.065460 418.325684,219.400162 420.687378,212.449829 
M543.026550,164.654526 
	C544.399292,165.247101 545.724487,166.013992 547.152588,166.403595 
	C555.542725,168.692444 565.186279,163.771515 565.619263,156.780106 
	C566.478210,142.910904 562.235229,131.474182 549.168213,124.720886 
	C545.182678,122.661064 541.133850,120.638313 536.928162,119.109871 
	C530.755371,116.866508 526.783752,112.980850 524.108887,106.839302 
	C515.002625,85.930885 487.469421,77.969223 468.243042,90.377510 
	C462.742340,93.927559 458.446625,98.856041 456.670288,104.988853 
	C454.779236,111.517792 450.871552,115.066696 444.837250,117.199921 
	C436.872681,120.015511 429.827606,124.361351 424.097198,130.651077 
	C418.686157,136.590286 415.917633,143.629288 416.441803,151.643066 
	C417.201202,163.252914 428.360077,170.111908 437.641937,164.876205 
	C441.770599,162.547333 444.320282,159.041656 445.390808,154.365417 
	C446.081573,151.348083 448.109070,149.326431 451.235321,148.959595 
	C453.948120,148.641266 456.419922,149.885376 457.417175,152.330978 
	C459.708252,157.949387 464.559540,160.052246 469.629761,161.728531 
	C481.779968,165.745544 494.211853,165.909103 506.576385,163.087814 
	C513.668335,161.469604 520.872253,159.585846 524.267944,151.716476 
	C525.209839,149.533661 527.742188,148.569427 530.264954,148.962204 
	C533.403259,149.450760 535.437988,151.526077 535.976501,154.521561 
	C536.741699,158.777817 539.128723,161.755432 543.026550,164.654526 
M582.431458,383.858124 
	C567.138306,410.596497 546.213257,431.627319 519.787842,447.595093 
	C496.564911,461.627747 472.479095,474.185913 449.791748,489.131226 
	C435.569122,498.500336 424.202698,510.247284 416.328094,525.413513 
	C411.248657,535.196289 407.197723,545.379272 403.529999,555.742310 
	C400.195862,565.162903 397.397888,574.732666 395.570160,584.563049 
	C394.947449,587.912415 396.036346,590.703125 399.564209,591.533691 
	C403.044373,592.352966 404.729889,590.042419 405.605865,587.020142 
	C405.883179,586.063293 406.101593,585.086060 406.289154,584.107117 
	C409.281952,568.486450 414.932251,553.727295 421.030212,539.134094 
	C428.780060,520.587646 441.253113,506.260010 458.498627,495.629730 
	C477.502869,483.915344 497.157043,473.339874 516.201111,461.728699 
	C535.400208,450.023010 554.382812,437.988098 569.077698,420.387024 
	C578.402466,409.218109 586.459351,397.231140 593.945740,384.813568 
	C595.833862,381.681793 596.786255,378.405975 592.864197,376.210938 
	C588.890991,373.987274 586.757629,376.862152 584.898132,379.832764 
	C584.191467,380.961578 583.518311,382.111420 582.431458,383.858124 
M488.507172,281.931091 
	C491.109680,280.551056 492.901520,281.702881 494.512238,283.744904 
	C496.802826,286.648773 499.441284,289.164215 502.894318,290.684937 
	C509.110931,293.422821 515.616821,291.504578 519.057861,285.944733 
	C520.715454,283.266449 521.315491,280.611023 518.498352,278.391632 
	C515.946350,276.381165 513.469971,277.049103 511.433136,279.330566 
	C509.768463,281.195160 508.082520,281.808167 505.752289,280.448883 
	C496.321594,274.947754 496.095032,263.095032 505.362610,257.726562 
	C510.997040,254.462662 512.540588,249.721619 509.500977,245.015778 
	C506.093201,239.739990 499.440552,238.184738 494.849670,242.370987 
	C491.571167,245.360519 489.463287,245.342850 486.029663,242.813004 
	C482.464233,240.186005 478.152435,240.197571 474.280396,242.695801 
	C471.230499,244.663574 469.961212,247.606003 470.342896,251.286407 
	C470.722870,254.950058 473.670563,256.442383 476.082458,258.426666 
	C483.702606,264.695740 484.338104,270.016663 478.410828,277.689331 
	C475.128815,281.937805 473.464478,282.157043 469.247314,278.786774 
	C467.210999,277.159454 465.034119,276.583405 462.864349,278.229431 
	C460.762299,279.824127 460.277039,282.099457 461.415833,284.491730 
	C463.400574,288.661316 466.460663,291.377747 471.326355,291.799133 
	C479.081268,292.470703 483.483490,287.408783 488.507172,281.931091 
M576.536926,119.106155 
	C582.617371,128.056335 583.990601,138.234482 583.374146,149.895828 
	C593.552795,140.306671 599.491211,130.087555 601.661438,117.642876 
	C603.520386,106.982735 601.873291,96.417587 601.152344,85.843063 
	C600.753113,79.988052 600.902771,73.995819 598.911133,67.690170 
	C597.662476,69.461090 596.679138,70.759598 595.796143,72.123146 
	C589.015259,82.594772 582.248230,93.075340 575.488464,103.560593 
	C570.520386,111.266670 570.528198,111.271706 576.536926,119.106155 
M380.317047,82.688011 
	C379.459045,92.140617 379.002777,101.600395 379.186859,111.103516 
	C379.415314,122.897522 383.422455,133.202637 390.782684,142.295197 
	C392.674927,144.632767 394.256775,147.337509 397.756989,149.153610 
	C396.864319,135.126480 400.079376,123.212967 409.234436,113.331589 
	C411.194519,111.216026 409.602966,109.653915 408.571655,108.032509 
	C402.583557,98.618233 396.578369,89.214653 390.533508,79.836746 
	C388.040985,75.969818 385.435547,72.175674 382.108307,67.189903 
	C381.408722,72.968628 380.875793,77.370689 380.317047,82.688011 
M479.581665,217.688034 
	C486.945282,215.981689 494.338074,215.457169 501.854218,216.720474 
	C504.017029,217.083984 507.081116,217.772537 507.483429,214.441498 
	C507.843903,211.456787 504.963928,211.474503 502.881409,211.085754 
	C494.228241,209.470444 485.664337,210.050339 477.172516,212.192490 
	C474.943573,212.754745 472.675385,213.701279 473.413177,216.458176 
	C474.229950,219.510376 476.711731,218.427887 479.581665,217.688034 
z"/>
</svg>