<svg xmlns="http://www.w3.org/2000/svg" xmlns:xlink="http://www.w3.org/1999/xlink" width="29.558" height="34" viewBox="0 0 29.558 34">
  <defs>
    <clipPath id="clip-path">
      <rect id="Rectángulo_870" data-name="Rectángulo 870" width="29.558" height="34" fill="#898989"/>
    </clipPath>
  </defs>
  <g id="iconoUbicacion" transform="translate(0 0)">
    <g id="Grupo_10834" data-name="Grupo 10834" transform="translate(0 0)" clip-path="url(#clip-path)">
      <path id="Trazado_2917" data-name="Trazado 2917" d="M12.835,21.007l-1.2-.095a24.9,24.9,0,0,1-7.93-1.789A7.412,7.412,0,0,1,.6,16.838a3.013,3.013,0,0,1,.218-3.875,8.429,8.429,0,0,1,3.259-2.125,28.263,28.263,0,0,1,2.773-.933.277.277,0,0,1,.373.134C7.74,10.952,8.34,11.813,8.9,12.7c1.044,1.653,2.081,3.31,3.143,4.951a3.158,3.158,0,0,0,1.8,1.44,3.122,3.122,0,0,0,3.629-1.382c.674-1.03,1.349-2.06,1.988-3.111.859-1.41,1.771-2.785,2.648-4.18.361-.574.368-.606.993-.4a16.709,16.709,0,0,1,4.365,1.854,5.181,5.181,0,0,1,1.694,1.717,2.88,2.88,0,0,1-.164,3.187,5.743,5.743,0,0,1-1.648,1.511,15.739,15.739,0,0,1-5.937,2.148,26.731,26.731,0,0,1-4.541.537.908.908,0,0,0-.153.035Z" transform="translate(0 12.993)" fill="#898989"/>
      <path id="Trazado_2918" data-name="Trazado 2918" d="M1.7,11.05a11.5,11.5,0,0,1,.97-4.574A11.161,11.161,0,0,1,5.979,2.263,10.235,10.235,0,0,1,10.347.229a10.6,10.6,0,0,1,4.06-.062,9.983,9.983,0,0,1,4.187,1.7,11.091,11.091,0,0,1,4.787,9.814,12.313,12.313,0,0,1-.572,2.866,17.123,17.123,0,0,1-2.062,3.81c-.949,1.549-1.967,3.053-2.914,4.6-.845,1.377-1.755,2.71-2.592,4.09-.569.942-1.178,1.859-1.759,2.791a1.037,1.037,0,0,1-1.868,0c-.481-.759-.986-1.5-1.451-2.275-.856-1.419-1.8-2.787-2.657-4.2-.843-1.389-1.771-2.722-2.6-4.115-.646-1.081-1.391-2.1-1.974-3.21A10.912,10.912,0,0,1,1.778,12.3,8.39,8.39,0,0,1,1.7,11.05m10.853,4.872a4.942,4.942,0,0,0,0-9.884,4.942,4.942,0,0,0,0,9.884" transform="translate(2.226 0)" fill="#898989"/>
    </g>
  </g>
</svg>
