<?xml version="1.0" encoding="utf-8"?>
<!-- Generator: Adobe Illustrator 26.3.1, SVG Export Plug-In . SVG Version: 6.00 Build 0)  -->
<svg version="1.1" id="Capa_1" xmlns="http://www.w3.org/2000/svg" xmlns:xlink="http://www.w3.org/1999/xlink" x="0px" y="0px"
	 viewBox="0 0 500 500" style="enable-background:new 0 0 500 500;" xml:space="preserve">
<style type="text/css">
	.st0{fill:#006EB2;}
</style>
<g>
	<path class="st0" d="M469.61,131.71v3c0,3.06-1.64,5.88-4.29,7.4L254.22,262.63c-2.62,1.49-5.83,1.49-8.45,0L34.69,142.15
		c-2.66-1.52-4.3-4.34-4.3-7.4v-11.56c0-12.44,10.09-22.57,22.57-22.57h385.55C455.69,100.62,469.61,114.54,469.61,131.71z"/>
	<path class="st0" d="M256.51,291.5l213.1-121.68v206.99c0,12.49-10.13,22.57-22.57,22.57H52.97c-12.49,0-22.57-10.09-22.57-22.57
		V169.86l213.1,121.63c2.01,1.18,4.28,1.75,6.51,1.75C252.23,293.24,254.45,292.68,256.51,291.5z"/>
</g>
</svg>
