<?xml version="1.0" encoding="utf-8"?>
<!-- Generator: Adobe Illustrator 26.3.1, SVG Export Plug-In . SVG Version: 6.00 Build 0)  -->
<svg version="1.1" id="Capa_1" xmlns="http://www.w3.org/2000/svg" xmlns:xlink="http://www.w3.org/1999/xlink" x="0px" y="0px"
	 viewBox="0 0 500 500" style="enable-background:new 0 0 500 500;" xml:space="preserve">
<style type="text/css">
	.st0{fill-rule:evenodd;clip-rule:evenodd;fill:#FFFFFF;}
</style>
<path id="Trazado_3" class="st0" d="M250,72.02c28.88-1.08,57.81-0.28,86.59,2.41c13.96-0.17,27.83,2.27,40.88,7.22
	c18.01,8.39,32.49,22.87,40.88,40.88c4.95,13.06,7.4,26.92,7.23,40.88c0,21.65,2.41,28.86,2.41,86.59
	c1.08,28.88,0.28,57.81-2.41,86.59c0.17,13.96-2.27,27.83-7.22,40.88c-8.39,18.01-22.87,32.49-40.88,40.88
	c-13.06,4.94-26.92,7.39-40.88,7.22c-21.65,0-28.86,2.41-86.59,2.41c-28.88,1.08-57.81,0.28-86.59-2.41
	c-13.96,0.17-27.83-2.27-40.88-7.22c-18.01-8.39-32.49-22.87-40.88-40.88c-4.95-13.05-7.41-26.92-7.24-40.88
	c0-21.65-2.41-28.86-2.41-86.59c-1.08-28.88-0.28-57.81,2.41-86.59c-0.17-13.96,2.27-27.83,7.22-40.88
	c4.2-8.92,9.9-17.06,16.84-24.06c5.64-8.41,14.22-14.42,24.06-16.84c13.06-4.94,26.92-7.39,40.88-7.22
	c28.78-2.69,57.7-3.49,86.59-2.41 M250,33.53c-29.69-1.06-59.41-0.25-89,2.41c-18.07-0.04-36,3.21-52.9,9.61
	c-14.6,4.76-27.81,13.02-38.49,24.06C58.57,80.29,50.32,93.5,45.55,108.1c-7.55,16.56-10.85,34.75-9.61,52.9
	c-2.66,29.59-3.47,59.31-2.41,89c-1.06,29.69-0.25,59.41,2.41,89c-0.04,18.08,3.22,36.01,9.63,52.92
	c4.76,14.59,13.01,27.8,24.04,38.47c10.68,11.04,23.89,19.3,38.49,24.06c16.91,6.4,34.84,9.67,52.92,9.63
	c29.58,2.66,59.3,3.46,88.98,2.4c29.69,1.06,59.41,0.25,89-2.41c18.08,0.04,36.01-3.22,52.92-9.63
	c29.35-10.11,52.42-33.18,62.53-62.53c6.4-16.91,9.67-34.84,9.63-52.92c-0.01-24.04,2.4-31.26,2.4-88.98
	c1.06-29.69,0.25-59.41-2.41-89c0.04-18.08-3.22-36.01-9.63-52.92c-4.76-14.59-13.01-27.8-24.04-38.47
	c-10.68-11.04-23.89-19.3-38.49-24.06c-16.9-6.4-34.83-9.65-52.9-9.61C309.41,33.28,279.69,32.47,250,33.53 M250,139.36
	c-60.11-1-109.65,46.92-110.64,107.03c-0.02,1.2-0.02,2.41,0,3.61c0,61.11,49.54,110.64,110.64,110.64S360.64,311.1,360.64,250
	S311.11,139.36,250,139.36L250,139.36 M250,322.15c-39.13,0.72-71.44-30.43-72.16-69.56c-0.02-0.86-0.02-1.73,0-2.59
	c-0.72-39.13,30.43-71.44,69.56-72.16c0.86-0.02,1.73-0.02,2.59,0c39.13-0.72,71.44,30.43,72.16,69.56c0.02,0.86,0.02,1.73,0,2.59
	c0.72,39.13-30.43,71.44-69.56,72.16C251.73,322.17,250.86,322.17,250,322.15 M365.45,108.1c-14.61,0-26.45,11.84-26.45,26.45
	S350.84,161,365.45,161c14.61,0,26.45-11.84,26.45-26.45C391.77,120,380,108.23,365.45,108.1"/>
</svg>
