<?xml version="1.0" encoding="utf-8"?>
<!-- Generator: Adobe Illustrator 26.3.1, SVG Export Plug-In . SVG Version: 6.00 Build 0)  -->
<svg version="1.1" id="Capa_1" xmlns="http://www.w3.org/2000/svg" xmlns:xlink="http://www.w3.org/1999/xlink" x="0px" y="0px"
	 viewBox="0 0 500 500" style="enable-background:new 0 0 500 500;" xml:space="preserve">
<style type="text/css">
	.st0{fill:#006EB2;}
</style>
<g id="call">
	<g>
		<path class="st0" d="M91.47,83.6l14.33-13.08c7.03-6.42,18.12-5.72,24.77,1.56l56.94,62.37c7.62,8.35,7.27,21.09-0.8,28.45
			l-10.99,10.04c-14.06,12.84-14.69,35.05-1.39,49.61L267.85,325c13.29,14.56,35.47,15.96,49.54,3.12l10.99-10.04
			c8.07-7.36,20.78-6.56,28.41,1.79l56.97,62.4c6.63,7.26,6.32,18.34-0.69,24.74l-14.36,13.11
			c-44.14,40.3-125.01,23.56-231.07-92.62l-4.9-5.37C56.66,205.95,47.33,123.9,91.47,83.6z"/>
	</g>
	<g>
		<path class="st0" d="M363.56,273.03c-6.46,0-11.69-5.23-11.69-11.69c0-60.27-49.03-109.3-109.3-109.3
			c-6.46,0-11.69-5.23-11.69-11.69s5.24-11.69,11.69-11.69c73.16,0,132.69,59.52,132.69,132.68
			C375.25,267.8,370.02,273.03,363.56,273.03z"/>
	</g>
	<g>
		<path class="st0" d="M421.7,264.71c-6.46,0-11.69-5.23-11.69-11.69c0-93.48-76.05-169.54-169.54-169.54
			c-6.46,0-11.69-5.23-11.69-11.69c0-6.46,5.24-11.69,11.69-11.69c106.38,0,192.92,86.55,192.92,192.92
			C433.4,259.48,428.16,264.71,421.7,264.71z"/>
	</g>
</g>
</svg>
