<?xml version="1.0" encoding="utf-8"?>
<!-- Generator: Adobe Illustrator 26.3.1, SVG Export Plug-In . SVG Version: 6.00 Build 0)  -->
<svg version="1.1" id="Capa_1" xmlns="http://www.w3.org/2000/svg" xmlns:xlink="http://www.w3.org/1999/xlink" x="0px" y="0px"
	 viewBox="0 0 500 500" style="enable-background:new 0 0 500 500;" xml:space="preserve">
<style type="text/css">
	.st0{fill:#F8DB47;}
	.st1{fill:#063180;}
	.st2{fill:#0B9BD1;}
</style>
<path class="st0" d="M455.77,328.07H44.23c-9.76,0-17.67-7.91-17.67-17.67V189.61c0-9.76,7.91-17.67,17.67-17.67h411.54
	c9.76,0,17.67,7.91,17.67,17.67v120.79C473.44,320.15,465.53,328.07,455.77,328.07z"/>
<g>
	<path class="st1" d="M102.28,207.85c5.29,0.21,11.76-0.47,18.18,0.59c11.98,1.98,18,9.46,17.08,21.39
		c-0.19,2.47-0.6,4.95-1.21,7.35c-3.63,14.33-13.08,21.98-27.92,22.63c-3.41,0.15-6.82,0.06-10.23,0.08
		c-4.23,0.02-5.27,0.94-5.92,5.22c-0.79,5.19-1.58,10.39-2.42,15.57c-0.74,4.57-1.57,5.26-6.12,5.26c-3.13,0-6.27,0-9.4-0.01
		c-4.09-0.01-4.69-0.64-4.06-4.76c1.42-9.29,2.9-18.57,4.37-27.85c2.16-13.65,4.31-27.31,6.49-40.95c0.57-3.56,1.7-4.49,5.36-4.5
		C91.36,207.84,96.24,207.85,102.28,207.85z M101.07,244.32c1.38-0.07,2.76-0.08,4.13-0.21c7.85-0.75,11.64-5.13,11.36-13.06
		c-0.13-3.66-1.78-5.8-5.29-6.82c-3.05-0.89-6.19-0.71-9.31-0.81c-2.28-0.07-3.34,0.91-3.65,3.14c-0.56,4.1-1.25,8.18-1.94,12.26
		C95.44,244.3,95.42,244.3,101.07,244.32z"/>
	<path class="st2" d="M301.95,207.82c5.85,0.35,12.68-0.51,19.47,0.82c10.39,2.04,16.19,8.8,15.95,19.37
		c-0.17,7.31-1.83,14.31-6.09,20.39c-5.27,7.51-12.97,10.67-21.82,11.34c-3.86,0.29-7.74,0.15-11.62,0.17
		c-3.79,0.02-5.17,1.12-5.77,4.87c-0.92,5.74-1.89,11.47-2.64,17.23c-0.35,2.7-1.6,3.97-4.29,3.96c-3.97-0.02-7.94,0.05-11.9,0
		c-2.89-0.04-3.81-1.2-3.37-4.01c3.48-22.04,6.97-44.09,10.44-66.13c1.27-8.05,1.26-8.05,9.34-8.02
		C293.43,207.83,297.21,207.82,301.95,207.82z M300.72,244.35c1.65-0.13,3.31-0.17,4.94-0.4c7.4-1.05,10.96-5.39,10.6-12.87
		c-0.18-3.89-1.78-5.88-5.53-6.93c-3.06-0.86-6.2-0.65-9.33-0.69c-2.01-0.02-3.02,0.93-3.3,2.9c-0.61,4.19-1.38,8.35-1.96,12.54
		C295.41,244.23,294.1,244.33,300.72,244.35z"/>
	<path class="st2" d="M381.89,285.99c-1.47,0-2.95-0.03-4.42,0.01c-2.46,0.07-4.09-0.58-4.04-3.55c0.05-2.38-1.28-1.05-2.06-0.48
		c-6.68,4.78-14.04,6.21-22.05,4.59c-7.96-1.61-13.9-7.63-15.54-16.1c-3.37-17.37,8.32-35.96,26.84-37.69
		c6.49-0.61,12.98-0.27,18.19,4.58c1.15,1.07,1.68,0.39,1.85-0.67c0.42-2.55,2.19-2.9,4.28-2.89c3.41,0.01,6.82-0.03,10.23,0.04
		c3.23,0.06,4.13,1.1,3.62,4.35c-1.86,11.93-3.79,23.85-5.69,35.77c-0.42,2.64-0.83,5.28-1.32,7.91c-0.56,3-1.83,4.04-4.91,4.13
		c-0.83,0.02-1.66,0.01-2.49,0.01c-0.83,0-1.66,0-2.49,0C381.89,285.98,381.89,285.99,381.89,285.99z M378,257.86
		c0.13-5.69-3.46-9.94-9.07-10.74c-8.82-1.25-16.61,4.91-17.4,13.77c-0.57,6.4,2.79,10.77,9.03,11.73
		C369.83,274.05,377.79,267.31,378,257.86z"/>
	<path class="st1" d="M173.54,280.81c-0.75-0.1-1.15,0.48-1.65,0.86c-7.03,5.33-14.93,6.7-23.33,4.62
		c-8.45-2.09-12.9-8.17-14.61-16.37c-3.08-14.78,6.22-30.91,20.51-35.79c5.85-2,11.78-1.93,17.74-0.56
		c3.24,0.75,5.87,2.55,7.95,5.12c0.9-0.52,0.71-1.36,0.81-2.02c0.31-1.99,1.4-2.86,3.4-2.83c3.87,0.05,7.75,0.03,11.63,0.01
		c2.38-0.01,3.43,1.11,3.06,3.46c-2.36,15.03-4.73,30.06-7.11,45.09c-0.38,2.36-1.9,3.5-4.25,3.51c-3.41,0.02-6.83,0.03-10.24,0.01
		c-3.31-0.02-3.73-0.49-3.62-3.94c0.01-0.36-0.1-0.71-0.16-1.07c0.11-0.09,0.21-0.18,0.32-0.26c-0.06-0.06-0.13-0.11-0.19-0.17
		C173.71,280.59,173.63,280.7,173.54,280.81z M167.01,246.93c-8.67-0.1-15.7,7.17-15.3,15.82c0.25,5.38,3.34,9,8.69,9.87
		c5.58,0.9,10.54-0.55,14.2-4.94c3.58-4.3,4.93-9.32,2.7-14.71C175.45,248.49,171.58,247,167.01,246.93z"/>
	<path class="st1" d="M233.27,262.55c2.84-4.16,5.64-8.24,8.41-12.33c3.05-4.5,6.14-8.98,9.11-13.54c1.28-1.97,2.86-2.94,5.25-2.87
		c3.69,0.11,7.38,0.03,11.07,0.04c1.21,0,2.46,0.01,3.15,1.26c0.69,1.26,0.05,2.29-0.65,3.31c-9.53,13.81-18.92,27.72-28.65,41.38
		c-5,7.02-9.55,14.35-14.59,21.34c-1.49,2.07-3.13,3.14-5.74,3.03c-3.68-0.16-7.38,0.01-11.06-0.06c-3.04-0.06-3.99-1.82-2.26-4.34
		c4.03-5.88,8.04-11.77,12.34-17.45c1.09-1.44,0.86-2.41,0.42-3.71c-4.38-12.9-8.77-25.81-13.15-38.71
		c-0.27-0.79-0.55-1.57-0.76-2.37c-0.63-2.39,0.15-3.61,2.59-3.67c4.15-0.1,8.3-0.06,12.45-0.01c2.39,0.03,3.58,1.5,4.21,3.68
		c2.13,7.25,4.3,14.49,6.48,21.72C232.18,260.31,232.29,261.45,233.27,262.55z"/>
	<path class="st2" d="M409.39,286c-1.57,0-3.14,0.04-4.7-0.01c-3.17-0.09-4.02-0.98-3.56-4.07c1.54-10.4,3.12-20.79,4.75-31.18
		c2.02-12.94,4.11-25.86,6.15-38.8c0.57-3.63,1.08-4.11,4.84-4.12c3.23-0.01,6.46-0.06,9.69,0.03c2.81,0.07,3.74,1.13,3.32,3.81
		c-2.74,17.49-5.51,34.97-8.27,52.46c-0.85,5.37-1.71,10.75-2.56,16.12c-0.8,5.02-1.6,5.73-6.59,5.74c-1.01,0-2.03,0-3.04,0
		C409.39,285.98,409.39,285.99,409.39,286z"/>
</g>
</svg>
